G04 #@! TF.FileFunction,Legend,Top*
%FSLAX46Y46*%
G04 Gerber Fmt 4.6, Leading zero omitted, Abs format (unit mm)*
G04 Created by KiCad (PCBNEW 4.0.7-e2-6376~58~ubuntu14.04.1) date Sat Apr 21 16:58:32 2018*
%MOMM*%
%LPD*%
G01*
G04 APERTURE LIST*
%ADD10C,0.100000*%
%ADD11C,0.200000*%
%ADD12C,0.250000*%
%ADD13C,0.300000*%
%ADD14C,0.120000*%
G04 APERTURE END LIST*
D10*
D11*
X200660000Y-96520000D02*
X200660000Y-88900000D01*
X198120000Y-96520000D02*
X198120000Y-88900000D01*
X195580000Y-96520000D02*
X195580000Y-88900000D01*
X193040000Y-96520000D02*
X193040000Y-88900000D01*
X190500000Y-96520000D02*
X190500000Y-88900000D01*
X187960000Y-96520000D02*
X187960000Y-88900000D01*
X185420000Y-96520000D02*
X185420000Y-88900000D01*
X182880000Y-96520000D02*
X182880000Y-88900000D01*
X180340000Y-96520000D02*
X180340000Y-88900000D01*
X177800000Y-96520000D02*
X177800000Y-88900000D01*
X177800000Y-106680000D02*
X177800000Y-99060000D01*
X180340000Y-106680000D02*
X180340000Y-99060000D01*
X182880000Y-106680000D02*
X182880000Y-99060000D01*
X185420000Y-106680000D02*
X185420000Y-99060000D01*
X187960000Y-106680000D02*
X187960000Y-99060000D01*
X190500000Y-106680000D02*
X190500000Y-99060000D01*
X193040000Y-106680000D02*
X193040000Y-99060000D01*
X195580000Y-106680000D02*
X195580000Y-99060000D01*
X198120000Y-106680000D02*
X198120000Y-99060000D01*
X200660000Y-106680000D02*
X200660000Y-99060000D01*
X203200000Y-106680000D02*
X203200000Y-99060000D01*
D12*
X210163300Y-103372388D02*
X209925204Y-102959994D01*
X209489002Y-103156850D01*
X209554051Y-103174280D01*
X209642909Y-103232949D01*
X209761957Y-103439146D01*
X209768337Y-103545434D01*
X209750907Y-103610483D01*
X209692237Y-103699341D01*
X209486041Y-103818389D01*
X209379753Y-103824769D01*
X209314704Y-103807339D01*
X209225846Y-103748670D01*
X209106798Y-103542473D01*
X209100418Y-103436185D01*
X209117848Y-103371136D01*
X208660816Y-101347815D02*
X208083465Y-101681148D01*
X208871682Y-100951142D02*
X208134044Y-101102088D01*
X208443568Y-101638200D01*
X173879661Y-96587899D02*
X174457012Y-96921233D01*
X173430699Y-96603620D02*
X173930242Y-97166960D01*
X174239766Y-96630848D01*
X206996667Y-98692381D02*
X207615715Y-98692381D01*
X207282381Y-99073333D01*
X207425239Y-99073333D01*
X207520477Y-99120952D01*
X207568096Y-99168571D01*
X207615715Y-99263810D01*
X207615715Y-99501905D01*
X207568096Y-99597143D01*
X207520477Y-99644762D01*
X207425239Y-99692381D01*
X207139524Y-99692381D01*
X207044286Y-99644762D01*
X206996667Y-99597143D01*
X172229082Y-99094865D02*
X172538606Y-98558754D01*
X172701853Y-99037906D01*
X172773282Y-98914187D01*
X172862140Y-98855518D01*
X172927189Y-98838088D01*
X173033478Y-98844469D01*
X173239674Y-98963516D01*
X173298343Y-99052374D01*
X173315773Y-99117423D01*
X173309393Y-99223711D01*
X173166535Y-99471148D01*
X173077677Y-99529817D01*
X173012628Y-99547246D01*
X206028916Y-96026374D02*
X206093965Y-96043804D01*
X206182823Y-96102473D01*
X206301871Y-96308670D01*
X206308251Y-96414958D01*
X206290821Y-96480007D01*
X206232152Y-96568865D01*
X206149674Y-96616484D01*
X206002147Y-96646673D01*
X205221560Y-96437516D01*
X205531084Y-96973627D01*
X170985370Y-101331245D02*
X170967940Y-101266196D01*
X170974320Y-101159908D01*
X171093368Y-100953711D01*
X171182226Y-100895042D01*
X171247275Y-100877612D01*
X171353563Y-100883992D01*
X171436041Y-100931611D01*
X171535949Y-101044279D01*
X171745107Y-101824865D01*
X172054631Y-101288754D01*
X203851084Y-94933627D02*
X203565370Y-94438755D01*
X203708227Y-94686191D02*
X204574252Y-94186190D01*
X204402915Y-94175140D01*
X204272818Y-94140281D01*
X204183959Y-94081612D01*
X170804631Y-103368754D02*
X170518916Y-103863626D01*
X170661773Y-103616191D02*
X169795748Y-103116190D01*
X169871847Y-103270098D01*
X169906706Y-103400195D01*
X169900327Y-103506483D01*
X181430477Y-86332381D02*
X181240000Y-86332381D01*
X181144762Y-86380000D01*
X181097143Y-86427619D01*
X181001905Y-86570476D01*
X180954286Y-86760952D01*
X180954286Y-87141905D01*
X181001905Y-87237143D01*
X181049524Y-87284762D01*
X181144762Y-87332381D01*
X181335239Y-87332381D01*
X181430477Y-87284762D01*
X181478096Y-87237143D01*
X181525715Y-87141905D01*
X181525715Y-86903810D01*
X181478096Y-86808571D01*
X181430477Y-86760952D01*
X181335239Y-86713333D01*
X181144762Y-86713333D01*
X181049524Y-86760952D01*
X181001905Y-86808571D01*
X180954286Y-86903810D01*
X183868096Y-86372381D02*
X183391905Y-86372381D01*
X183344286Y-86848571D01*
X183391905Y-86800952D01*
X183487143Y-86753333D01*
X183725239Y-86753333D01*
X183820477Y-86800952D01*
X183868096Y-86848571D01*
X183915715Y-86943810D01*
X183915715Y-87181905D01*
X183868096Y-87277143D01*
X183820477Y-87324762D01*
X183725239Y-87372381D01*
X183487143Y-87372381D01*
X183391905Y-87324762D01*
X183344286Y-87277143D01*
X186380477Y-86835714D02*
X186380477Y-87502381D01*
X186142381Y-86454762D02*
X185904286Y-87169048D01*
X186523334Y-87169048D01*
X188496667Y-86372381D02*
X189115715Y-86372381D01*
X188782381Y-86753333D01*
X188925239Y-86753333D01*
X189020477Y-86800952D01*
X189068096Y-86848571D01*
X189115715Y-86943810D01*
X189115715Y-87181905D01*
X189068096Y-87277143D01*
X189020477Y-87324762D01*
X188925239Y-87372381D01*
X188639524Y-87372381D01*
X188544286Y-87324762D01*
X188496667Y-87277143D01*
X191064286Y-86427619D02*
X191111905Y-86380000D01*
X191207143Y-86332381D01*
X191445239Y-86332381D01*
X191540477Y-86380000D01*
X191588096Y-86427619D01*
X191635715Y-86522857D01*
X191635715Y-86618095D01*
X191588096Y-86760952D01*
X191016667Y-87332381D01*
X191635715Y-87332381D01*
X194325715Y-87462381D02*
X193754286Y-87462381D01*
X194040000Y-87462381D02*
X194040000Y-86462381D01*
X193944762Y-86605238D01*
X193849524Y-86700476D01*
X193754286Y-86748095D01*
X203410442Y-92304951D02*
X203458062Y-92387431D01*
X203464442Y-92493719D01*
X203447012Y-92558767D01*
X203388343Y-92647626D01*
X203247195Y-92784103D01*
X203040998Y-92903151D01*
X202852232Y-92957150D01*
X202745944Y-92963529D01*
X202680895Y-92946100D01*
X202592037Y-92887431D01*
X202544417Y-92804951D01*
X202538037Y-92698663D01*
X202555467Y-92633614D01*
X202614136Y-92544756D01*
X202755284Y-92408279D01*
X202961481Y-92289231D01*
X203150247Y-92235232D01*
X203256535Y-92228852D01*
X203321584Y-92246282D01*
X203410442Y-92304951D01*
X211279490Y-105561148D02*
X211184252Y-105396190D01*
X211095394Y-105337521D01*
X211030345Y-105320092D01*
X210859008Y-105309042D01*
X210670242Y-105363040D01*
X210340327Y-105553517D01*
X210281658Y-105642375D01*
X210264228Y-105707424D01*
X210270608Y-105813712D01*
X210365846Y-105978670D01*
X210454704Y-106037339D01*
X210519753Y-106054769D01*
X210626041Y-106048389D01*
X210832237Y-105929341D01*
X210890907Y-105840483D01*
X210908337Y-105775434D01*
X210901957Y-105669146D01*
X210806719Y-105504188D01*
X210717861Y-105445519D01*
X210652812Y-105428089D01*
X210546523Y-105434469D01*
D11*
X175190000Y-99010000D02*
X175360000Y-106630000D01*
X205760000Y-99120000D02*
X205810000Y-106810000D01*
D12*
X196242381Y-86462381D02*
X196337620Y-86462381D01*
X196432858Y-86510000D01*
X196480477Y-86557619D01*
X196528096Y-86652857D01*
X196575715Y-86843333D01*
X196575715Y-87081429D01*
X196528096Y-87271905D01*
X196480477Y-87367143D01*
X196432858Y-87414762D01*
X196337620Y-87462381D01*
X196242381Y-87462381D01*
X196147143Y-87414762D01*
X196099524Y-87367143D01*
X196051905Y-87271905D01*
X196004286Y-87081429D01*
X196004286Y-86843333D01*
X196051905Y-86652857D01*
X196099524Y-86557619D01*
X196147143Y-86510000D01*
X196242381Y-86462381D01*
X178346667Y-86422381D02*
X179013334Y-86422381D01*
X178584762Y-87422381D01*
X174994796Y-94249993D02*
X174756701Y-94662387D01*
X175145284Y-94941721D01*
X175127854Y-94876672D01*
X175134234Y-94770384D01*
X175253282Y-94564187D01*
X175342140Y-94505518D01*
X175407189Y-94488088D01*
X175513478Y-94494469D01*
X175719674Y-94613516D01*
X175778343Y-94702374D01*
X175795773Y-94767423D01*
X175789393Y-94873711D01*
X175670345Y-95079908D01*
X175581487Y-95138577D01*
X175516438Y-95156007D01*
X169348061Y-105842570D02*
X169300442Y-105925050D01*
X169211584Y-105983719D01*
X169146535Y-106001148D01*
X169040247Y-105994769D01*
X168851480Y-105940770D01*
X168645283Y-105821722D01*
X168504136Y-105685245D01*
X168445467Y-105596386D01*
X168428037Y-105531338D01*
X168434417Y-105425050D01*
X168482036Y-105342570D01*
X168570894Y-105283901D01*
X168635943Y-105266471D01*
X168742231Y-105272851D01*
X168930998Y-105326850D01*
X169137195Y-105445898D01*
X169278342Y-105582375D01*
X169337011Y-105671233D01*
X169354441Y-105736282D01*
X169348061Y-105842570D01*
X185782381Y-124243809D02*
X185115714Y-124243809D01*
X185210952Y-124243809D02*
X185163333Y-124196190D01*
X185115714Y-124100952D01*
X185115714Y-123958094D01*
X185163333Y-123862856D01*
X185258571Y-123815237D01*
X185782381Y-123815237D01*
X185258571Y-123815237D02*
X185163333Y-123767618D01*
X185115714Y-123672380D01*
X185115714Y-123529523D01*
X185163333Y-123434285D01*
X185258571Y-123386666D01*
X185782381Y-123386666D01*
X185782381Y-122910476D02*
X185115714Y-122910476D01*
X184782381Y-122910476D02*
X184830000Y-122958095D01*
X184877619Y-122910476D01*
X184830000Y-122862857D01*
X184782381Y-122910476D01*
X184877619Y-122910476D01*
X185734762Y-122481905D02*
X185782381Y-122386667D01*
X185782381Y-122196191D01*
X185734762Y-122100952D01*
X185639524Y-122053333D01*
X185591905Y-122053333D01*
X185496667Y-122100952D01*
X185449048Y-122196191D01*
X185449048Y-122339048D01*
X185401429Y-122434286D01*
X185306190Y-122481905D01*
X185258571Y-122481905D01*
X185163333Y-122434286D01*
X185115714Y-122339048D01*
X185115714Y-122196191D01*
X185163333Y-122100952D01*
X185782381Y-121481905D02*
X185734762Y-121577143D01*
X185687143Y-121624762D01*
X185591905Y-121672381D01*
X185306190Y-121672381D01*
X185210952Y-121624762D01*
X185163333Y-121577143D01*
X185115714Y-121481905D01*
X185115714Y-121339047D01*
X185163333Y-121243809D01*
X185210952Y-121196190D01*
X185306190Y-121148571D01*
X185591905Y-121148571D01*
X185687143Y-121196190D01*
X185734762Y-121243809D01*
X185782381Y-121339047D01*
X185782381Y-121481905D01*
X179806191Y-126972381D02*
X179806191Y-126305714D01*
X179806191Y-126400952D02*
X179853810Y-126353333D01*
X179949048Y-126305714D01*
X180091906Y-126305714D01*
X180187144Y-126353333D01*
X180234763Y-126448571D01*
X180234763Y-126972381D01*
X180234763Y-126448571D02*
X180282382Y-126353333D01*
X180377620Y-126305714D01*
X180520477Y-126305714D01*
X180615715Y-126353333D01*
X180663334Y-126448571D01*
X180663334Y-126972381D01*
X181282381Y-126972381D02*
X181187143Y-126924762D01*
X181139524Y-126877143D01*
X181091905Y-126781905D01*
X181091905Y-126496190D01*
X181139524Y-126400952D01*
X181187143Y-126353333D01*
X181282381Y-126305714D01*
X181425239Y-126305714D01*
X181520477Y-126353333D01*
X181568096Y-126400952D01*
X181615715Y-126496190D01*
X181615715Y-126781905D01*
X181568096Y-126877143D01*
X181520477Y-126924762D01*
X181425239Y-126972381D01*
X181282381Y-126972381D01*
X181996667Y-126924762D02*
X182091905Y-126972381D01*
X182282381Y-126972381D01*
X182377620Y-126924762D01*
X182425239Y-126829524D01*
X182425239Y-126781905D01*
X182377620Y-126686667D01*
X182282381Y-126639048D01*
X182139524Y-126639048D01*
X182044286Y-126591429D01*
X181996667Y-126496190D01*
X181996667Y-126448571D01*
X182044286Y-126353333D01*
X182139524Y-126305714D01*
X182282381Y-126305714D01*
X182377620Y-126353333D01*
X182853810Y-126972381D02*
X182853810Y-126305714D01*
X182853810Y-125972381D02*
X182806191Y-126020000D01*
X182853810Y-126067619D01*
X182901429Y-126020000D01*
X182853810Y-125972381D01*
X182853810Y-126067619D01*
X180412381Y-121614762D02*
X180507619Y-121662381D01*
X180698095Y-121662381D01*
X180793334Y-121614762D01*
X180840953Y-121519524D01*
X180840953Y-121471905D01*
X180793334Y-121376667D01*
X180698095Y-121329048D01*
X180555238Y-121329048D01*
X180460000Y-121281429D01*
X180412381Y-121186190D01*
X180412381Y-121138571D01*
X180460000Y-121043333D01*
X180555238Y-120995714D01*
X180698095Y-120995714D01*
X180793334Y-121043333D01*
X181698096Y-121614762D02*
X181602858Y-121662381D01*
X181412381Y-121662381D01*
X181317143Y-121614762D01*
X181269524Y-121567143D01*
X181221905Y-121471905D01*
X181221905Y-121186190D01*
X181269524Y-121090952D01*
X181317143Y-121043333D01*
X181412381Y-120995714D01*
X181602858Y-120995714D01*
X181698096Y-121043333D01*
X182126667Y-121662381D02*
X182126667Y-120662381D01*
X182221905Y-121281429D02*
X182507620Y-121662381D01*
X182507620Y-120995714D02*
X182126667Y-121376667D01*
X177642381Y-123551905D02*
X176975714Y-123551905D01*
X177166190Y-123551905D02*
X177070952Y-123504286D01*
X177023333Y-123456667D01*
X176975714Y-123361429D01*
X176975714Y-123266190D01*
X177594762Y-122980476D02*
X177642381Y-122885238D01*
X177642381Y-122694762D01*
X177594762Y-122599523D01*
X177499524Y-122551904D01*
X177451905Y-122551904D01*
X177356667Y-122599523D01*
X177309048Y-122694762D01*
X177309048Y-122837619D01*
X177261429Y-122932857D01*
X177166190Y-122980476D01*
X177118571Y-122980476D01*
X177023333Y-122932857D01*
X176975714Y-122837619D01*
X176975714Y-122694762D01*
X177023333Y-122599523D01*
X176975714Y-122266190D02*
X176975714Y-121885238D01*
X176642381Y-122123333D02*
X177499524Y-122123333D01*
X177594762Y-122075714D01*
X177642381Y-121980476D01*
X177642381Y-121885238D01*
X177005714Y-125950476D02*
X177815238Y-125950476D01*
X177910476Y-125998095D01*
X177958095Y-126045714D01*
X178005714Y-126140953D01*
X178005714Y-126283810D01*
X177958095Y-126379048D01*
X177624762Y-125950476D02*
X177672381Y-126045714D01*
X177672381Y-126236191D01*
X177624762Y-126331429D01*
X177577143Y-126379048D01*
X177481905Y-126426667D01*
X177196190Y-126426667D01*
X177100952Y-126379048D01*
X177053333Y-126331429D01*
X177005714Y-126236191D01*
X177005714Y-126045714D01*
X177053333Y-125950476D01*
X177005714Y-125474286D02*
X177672381Y-125474286D01*
X177100952Y-125474286D02*
X177053333Y-125426667D01*
X177005714Y-125331429D01*
X177005714Y-125188571D01*
X177053333Y-125093333D01*
X177148571Y-125045714D01*
X177672381Y-125045714D01*
X177672381Y-124140952D02*
X176672381Y-124140952D01*
X177624762Y-124140952D02*
X177672381Y-124236190D01*
X177672381Y-124426667D01*
X177624762Y-124521905D01*
X177577143Y-124569524D01*
X177481905Y-124617143D01*
X177196190Y-124617143D01*
X177100952Y-124569524D01*
X177053333Y-124521905D01*
X177005714Y-124426667D01*
X177005714Y-124236190D01*
X177053333Y-124140952D01*
X185145714Y-126995238D02*
X185812381Y-126757143D01*
X185145714Y-126519047D01*
X185764762Y-125709523D02*
X185812381Y-125804761D01*
X185812381Y-125995238D01*
X185764762Y-126090476D01*
X185717143Y-126138095D01*
X185621905Y-126185714D01*
X185336190Y-126185714D01*
X185240952Y-126138095D01*
X185193333Y-126090476D01*
X185145714Y-125995238D01*
X185145714Y-125804761D01*
X185193333Y-125709523D01*
X185764762Y-124852380D02*
X185812381Y-124947618D01*
X185812381Y-125138095D01*
X185764762Y-125233333D01*
X185717143Y-125280952D01*
X185621905Y-125328571D01*
X185336190Y-125328571D01*
X185240952Y-125280952D01*
X185193333Y-125233333D01*
X185145714Y-125138095D01*
X185145714Y-124947618D01*
X185193333Y-124852380D01*
X192800952Y-123564762D02*
X192896190Y-123612381D01*
X193086666Y-123612381D01*
X193181905Y-123564762D01*
X193229524Y-123469524D01*
X193229524Y-123421905D01*
X193181905Y-123326667D01*
X193086666Y-123279048D01*
X192943809Y-123279048D01*
X192848571Y-123231429D01*
X192800952Y-123136190D01*
X192800952Y-123088571D01*
X192848571Y-122993333D01*
X192943809Y-122945714D01*
X193086666Y-122945714D01*
X193181905Y-122993333D01*
X194086667Y-123612381D02*
X194086667Y-122612381D01*
X194086667Y-123564762D02*
X193991429Y-123612381D01*
X193800952Y-123612381D01*
X193705714Y-123564762D01*
X193658095Y-123517143D01*
X193610476Y-123421905D01*
X193610476Y-123136190D01*
X193658095Y-123040952D01*
X193705714Y-122993333D01*
X193800952Y-122945714D01*
X193991429Y-122945714D01*
X194086667Y-122993333D01*
X194991429Y-123612381D02*
X194991429Y-123088571D01*
X194943810Y-122993333D01*
X194848572Y-122945714D01*
X194658095Y-122945714D01*
X194562857Y-122993333D01*
X194991429Y-123564762D02*
X194896191Y-123612381D01*
X194658095Y-123612381D01*
X194562857Y-123564762D01*
X194515238Y-123469524D01*
X194515238Y-123374286D01*
X194562857Y-123279048D01*
X194658095Y-123231429D01*
X194896191Y-123231429D01*
X194991429Y-123183810D01*
X195805238Y-123564762D02*
X195900476Y-123612381D01*
X196090952Y-123612381D01*
X196186191Y-123564762D01*
X196233810Y-123469524D01*
X196233810Y-123421905D01*
X196186191Y-123326667D01*
X196090952Y-123279048D01*
X195948095Y-123279048D01*
X195852857Y-123231429D01*
X195805238Y-123136190D01*
X195805238Y-123088571D01*
X195852857Y-122993333D01*
X195948095Y-122945714D01*
X196090952Y-122945714D01*
X196186191Y-122993333D01*
X197090953Y-123564762D02*
X196995715Y-123612381D01*
X196805238Y-123612381D01*
X196710000Y-123564762D01*
X196662381Y-123517143D01*
X196614762Y-123421905D01*
X196614762Y-123136190D01*
X196662381Y-123040952D01*
X196710000Y-122993333D01*
X196805238Y-122945714D01*
X196995715Y-122945714D01*
X197090953Y-122993333D01*
X197662381Y-123612381D02*
X197567143Y-123564762D01*
X197519524Y-123469524D01*
X197519524Y-122612381D01*
X189814762Y-122855714D02*
X190052857Y-123522381D01*
X190290953Y-122855714D01*
X191100477Y-123474762D02*
X191005239Y-123522381D01*
X190814762Y-123522381D01*
X190719524Y-123474762D01*
X190671905Y-123427143D01*
X190624286Y-123331905D01*
X190624286Y-123046190D01*
X190671905Y-122950952D01*
X190719524Y-122903333D01*
X190814762Y-122855714D01*
X191005239Y-122855714D01*
X191100477Y-122903333D01*
X191957620Y-123474762D02*
X191862382Y-123522381D01*
X191671905Y-123522381D01*
X191576667Y-123474762D01*
X191529048Y-123427143D01*
X191481429Y-123331905D01*
X191481429Y-123046190D01*
X191529048Y-122950952D01*
X191576667Y-122903333D01*
X191671905Y-122855714D01*
X191862382Y-122855714D01*
X191957620Y-122903333D01*
X187309524Y-122855714D02*
X187309524Y-123665238D01*
X187261905Y-123760476D01*
X187214286Y-123808095D01*
X187119047Y-123855714D01*
X186976190Y-123855714D01*
X186880952Y-123808095D01*
X187309524Y-123474762D02*
X187214286Y-123522381D01*
X187023809Y-123522381D01*
X186928571Y-123474762D01*
X186880952Y-123427143D01*
X186833333Y-123331905D01*
X186833333Y-123046190D01*
X186880952Y-122950952D01*
X186928571Y-122903333D01*
X187023809Y-122855714D01*
X187214286Y-122855714D01*
X187309524Y-122903333D01*
X187785714Y-122855714D02*
X187785714Y-123522381D01*
X187785714Y-122950952D02*
X187833333Y-122903333D01*
X187928571Y-122855714D01*
X188071429Y-122855714D01*
X188166667Y-122903333D01*
X188214286Y-122998571D01*
X188214286Y-123522381D01*
X189119048Y-123522381D02*
X189119048Y-122522381D01*
X189119048Y-123474762D02*
X189023810Y-123522381D01*
X188833333Y-123522381D01*
X188738095Y-123474762D01*
X188690476Y-123427143D01*
X188642857Y-123331905D01*
X188642857Y-123046190D01*
X188690476Y-122950952D01*
X188738095Y-122903333D01*
X188833333Y-122855714D01*
X189023810Y-122855714D01*
X189119048Y-122903333D01*
X174529524Y-97305714D02*
X174529524Y-98115238D01*
X174481905Y-98210476D01*
X174434286Y-98258095D01*
X174339047Y-98305714D01*
X174196190Y-98305714D01*
X174100952Y-98258095D01*
X174529524Y-97924762D02*
X174434286Y-97972381D01*
X174243809Y-97972381D01*
X174148571Y-97924762D01*
X174100952Y-97877143D01*
X174053333Y-97781905D01*
X174053333Y-97496190D01*
X174100952Y-97400952D01*
X174148571Y-97353333D01*
X174243809Y-97305714D01*
X174434286Y-97305714D01*
X174529524Y-97353333D01*
X175005714Y-97305714D02*
X175005714Y-97972381D01*
X175005714Y-97400952D02*
X175053333Y-97353333D01*
X175148571Y-97305714D01*
X175291429Y-97305714D01*
X175386667Y-97353333D01*
X175434286Y-97448571D01*
X175434286Y-97972381D01*
X176339048Y-97972381D02*
X176339048Y-96972381D01*
X176339048Y-97924762D02*
X176243810Y-97972381D01*
X176053333Y-97972381D01*
X175958095Y-97924762D01*
X175910476Y-97877143D01*
X175862857Y-97781905D01*
X175862857Y-97496190D01*
X175910476Y-97400952D01*
X175958095Y-97353333D01*
X176053333Y-97305714D01*
X176243810Y-97305714D01*
X176339048Y-97353333D01*
X204684762Y-97285714D02*
X204922857Y-97952381D01*
X205160953Y-97285714D01*
X205970477Y-97904762D02*
X205875239Y-97952381D01*
X205684762Y-97952381D01*
X205589524Y-97904762D01*
X205541905Y-97857143D01*
X205494286Y-97761905D01*
X205494286Y-97476190D01*
X205541905Y-97380952D01*
X205589524Y-97333333D01*
X205684762Y-97285714D01*
X205875239Y-97285714D01*
X205970477Y-97333333D01*
X206827620Y-97904762D02*
X206732382Y-97952381D01*
X206541905Y-97952381D01*
X206446667Y-97904762D01*
X206399048Y-97857143D01*
X206351429Y-97761905D01*
X206351429Y-97476190D01*
X206399048Y-97380952D01*
X206446667Y-97333333D01*
X206541905Y-97285714D01*
X206732382Y-97285714D01*
X206827620Y-97333333D01*
D13*
X172975714Y-112382143D02*
X173118571Y-112453571D01*
X173404286Y-112453571D01*
X173547143Y-112382143D01*
X173618571Y-112239286D01*
X173618571Y-112167857D01*
X173547143Y-112025000D01*
X173404286Y-111953571D01*
X173190000Y-111953571D01*
X173047143Y-111882143D01*
X172975714Y-111739286D01*
X172975714Y-111667857D01*
X173047143Y-111525000D01*
X173190000Y-111453571D01*
X173404286Y-111453571D01*
X173547143Y-111525000D01*
X174047143Y-111453571D02*
X174618572Y-111453571D01*
X174261429Y-110953571D02*
X174261429Y-112239286D01*
X174332857Y-112382143D01*
X174475715Y-112453571D01*
X174618572Y-112453571D01*
X175761429Y-112453571D02*
X175761429Y-111667857D01*
X175690000Y-111525000D01*
X175547143Y-111453571D01*
X175261429Y-111453571D01*
X175118572Y-111525000D01*
X175761429Y-112382143D02*
X175618572Y-112453571D01*
X175261429Y-112453571D01*
X175118572Y-112382143D01*
X175047143Y-112239286D01*
X175047143Y-112096429D01*
X175118572Y-111953571D01*
X175261429Y-111882143D01*
X175618572Y-111882143D01*
X175761429Y-111810714D01*
X177118572Y-112382143D02*
X176975715Y-112453571D01*
X176690001Y-112453571D01*
X176547143Y-112382143D01*
X176475715Y-112310714D01*
X176404286Y-112167857D01*
X176404286Y-111739286D01*
X176475715Y-111596429D01*
X176547143Y-111525000D01*
X176690001Y-111453571D01*
X176975715Y-111453571D01*
X177118572Y-111525000D01*
X177761429Y-112453571D02*
X177761429Y-110953571D01*
X177904286Y-111882143D02*
X178332857Y-112453571D01*
X178332857Y-111453571D02*
X177761429Y-112025000D01*
X179618572Y-112453571D02*
X179618572Y-111667857D01*
X179547143Y-111525000D01*
X179404286Y-111453571D01*
X179118572Y-111453571D01*
X178975715Y-111525000D01*
X179618572Y-112382143D02*
X179475715Y-112453571D01*
X179118572Y-112453571D01*
X178975715Y-112382143D01*
X178904286Y-112239286D01*
X178904286Y-112096429D01*
X178975715Y-111953571D01*
X179118572Y-111882143D01*
X179475715Y-111882143D01*
X179618572Y-111810714D01*
X180332858Y-112453571D02*
X180332858Y-110953571D01*
X180332858Y-111525000D02*
X180475715Y-111453571D01*
X180761429Y-111453571D01*
X180904286Y-111525000D01*
X180975715Y-111596429D01*
X181047144Y-111739286D01*
X181047144Y-112167857D01*
X180975715Y-112310714D01*
X180904286Y-112382143D01*
X180761429Y-112453571D01*
X180475715Y-112453571D01*
X180332858Y-112382143D01*
X181904287Y-112453571D02*
X181761429Y-112382143D01*
X181690001Y-112239286D01*
X181690001Y-110953571D01*
X183047143Y-112382143D02*
X182904286Y-112453571D01*
X182618572Y-112453571D01*
X182475715Y-112382143D01*
X182404286Y-112239286D01*
X182404286Y-111667857D01*
X182475715Y-111525000D01*
X182618572Y-111453571D01*
X182904286Y-111453571D01*
X183047143Y-111525000D01*
X183118572Y-111667857D01*
X183118572Y-111810714D01*
X182404286Y-111953571D01*
X184904286Y-111453571D02*
X184904286Y-112953571D01*
X184904286Y-111525000D02*
X185047143Y-111453571D01*
X185332857Y-111453571D01*
X185475714Y-111525000D01*
X185547143Y-111596429D01*
X185618572Y-111739286D01*
X185618572Y-112167857D01*
X185547143Y-112310714D01*
X185475714Y-112382143D01*
X185332857Y-112453571D01*
X185047143Y-112453571D01*
X184904286Y-112382143D01*
X186261429Y-112453571D02*
X186261429Y-111453571D01*
X186261429Y-111739286D02*
X186332857Y-111596429D01*
X186404286Y-111525000D01*
X186547143Y-111453571D01*
X186690000Y-111453571D01*
X187404286Y-112453571D02*
X187261428Y-112382143D01*
X187190000Y-112310714D01*
X187118571Y-112167857D01*
X187118571Y-111739286D01*
X187190000Y-111596429D01*
X187261428Y-111525000D01*
X187404286Y-111453571D01*
X187618571Y-111453571D01*
X187761428Y-111525000D01*
X187832857Y-111596429D01*
X187904286Y-111739286D01*
X187904286Y-112167857D01*
X187832857Y-112310714D01*
X187761428Y-112382143D01*
X187618571Y-112453571D01*
X187404286Y-112453571D01*
X188332857Y-111453571D02*
X188904286Y-111453571D01*
X188547143Y-110953571D02*
X188547143Y-112239286D01*
X188618571Y-112382143D01*
X188761429Y-112453571D01*
X188904286Y-112453571D01*
X189618572Y-112453571D02*
X189475714Y-112382143D01*
X189404286Y-112310714D01*
X189332857Y-112167857D01*
X189332857Y-111739286D01*
X189404286Y-111596429D01*
X189475714Y-111525000D01*
X189618572Y-111453571D01*
X189832857Y-111453571D01*
X189975714Y-111525000D01*
X190047143Y-111596429D01*
X190118572Y-111739286D01*
X190118572Y-112167857D01*
X190047143Y-112310714D01*
X189975714Y-112382143D01*
X189832857Y-112453571D01*
X189618572Y-112453571D01*
X190547143Y-111453571D02*
X191118572Y-111453571D01*
X190761429Y-110953571D02*
X190761429Y-112239286D01*
X190832857Y-112382143D01*
X190975715Y-112453571D01*
X191118572Y-112453571D01*
X191475715Y-111453571D02*
X191832858Y-112453571D01*
X192190000Y-111453571D02*
X191832858Y-112453571D01*
X191690000Y-112810714D01*
X191618572Y-112882143D01*
X191475715Y-112953571D01*
X192761429Y-111453571D02*
X192761429Y-112953571D01*
X192761429Y-111525000D02*
X192904286Y-111453571D01*
X193190000Y-111453571D01*
X193332857Y-111525000D01*
X193404286Y-111596429D01*
X193475715Y-111739286D01*
X193475715Y-112167857D01*
X193404286Y-112310714D01*
X193332857Y-112382143D01*
X193190000Y-112453571D01*
X192904286Y-112453571D01*
X192761429Y-112382143D01*
X194690000Y-112382143D02*
X194547143Y-112453571D01*
X194261429Y-112453571D01*
X194118572Y-112382143D01*
X194047143Y-112239286D01*
X194047143Y-111667857D01*
X194118572Y-111525000D01*
X194261429Y-111453571D01*
X194547143Y-111453571D01*
X194690000Y-111525000D01*
X194761429Y-111667857D01*
X194761429Y-111810714D01*
X194047143Y-111953571D01*
X177225715Y-115003571D02*
X177225715Y-113503571D01*
X177868572Y-115003571D02*
X177868572Y-114217857D01*
X177797143Y-114075000D01*
X177654286Y-114003571D01*
X177440001Y-114003571D01*
X177297143Y-114075000D01*
X177225715Y-114146429D01*
X179154286Y-114932143D02*
X179011429Y-115003571D01*
X178725715Y-115003571D01*
X178582858Y-114932143D01*
X178511429Y-114789286D01*
X178511429Y-114217857D01*
X178582858Y-114075000D01*
X178725715Y-114003571D01*
X179011429Y-114003571D01*
X179154286Y-114075000D01*
X179225715Y-114217857D01*
X179225715Y-114360714D01*
X178511429Y-114503571D01*
X179725715Y-115003571D02*
X180511429Y-114003571D01*
X179725715Y-114003571D02*
X180511429Y-115003571D01*
X181725715Y-115003571D02*
X181725715Y-114217857D01*
X181654286Y-114075000D01*
X181511429Y-114003571D01*
X181225715Y-114003571D01*
X181082858Y-114075000D01*
X181725715Y-114932143D02*
X181582858Y-115003571D01*
X181225715Y-115003571D01*
X181082858Y-114932143D01*
X181011429Y-114789286D01*
X181011429Y-114646429D01*
X181082858Y-114503571D01*
X181225715Y-114432143D01*
X181582858Y-114432143D01*
X181725715Y-114360714D01*
X183082858Y-114003571D02*
X183082858Y-115217857D01*
X183011429Y-115360714D01*
X182940001Y-115432143D01*
X182797144Y-115503571D01*
X182582858Y-115503571D01*
X182440001Y-115432143D01*
X183082858Y-114932143D02*
X182940001Y-115003571D01*
X182654287Y-115003571D01*
X182511429Y-114932143D01*
X182440001Y-114860714D01*
X182368572Y-114717857D01*
X182368572Y-114289286D01*
X182440001Y-114146429D01*
X182511429Y-114075000D01*
X182654287Y-114003571D01*
X182940001Y-114003571D01*
X183082858Y-114075000D01*
X184011430Y-115003571D02*
X183868572Y-114932143D01*
X183797144Y-114860714D01*
X183725715Y-114717857D01*
X183725715Y-114289286D01*
X183797144Y-114146429D01*
X183868572Y-114075000D01*
X184011430Y-114003571D01*
X184225715Y-114003571D01*
X184368572Y-114075000D01*
X184440001Y-114146429D01*
X184511430Y-114289286D01*
X184511430Y-114717857D01*
X184440001Y-114860714D01*
X184368572Y-114932143D01*
X184225715Y-115003571D01*
X184011430Y-115003571D01*
X185154287Y-114003571D02*
X185154287Y-115003571D01*
X185154287Y-114146429D02*
X185225715Y-114075000D01*
X185368573Y-114003571D01*
X185582858Y-114003571D01*
X185725715Y-114075000D01*
X185797144Y-114217857D01*
X185797144Y-115003571D01*
X187511430Y-114003571D02*
X187868573Y-115003571D01*
X188225715Y-114003571D01*
X189582858Y-115003571D02*
X188725715Y-115003571D01*
X189154287Y-115003571D02*
X189154287Y-113503571D01*
X189011430Y-113717857D01*
X188868572Y-113860714D01*
X188725715Y-113932143D01*
X190225715Y-114860714D02*
X190297143Y-114932143D01*
X190225715Y-115003571D01*
X190154286Y-114932143D01*
X190225715Y-114860714D01*
X190225715Y-115003571D01*
X191225715Y-113503571D02*
X191368572Y-113503571D01*
X191511429Y-113575000D01*
X191582858Y-113646429D01*
X191654287Y-113789286D01*
X191725715Y-114075000D01*
X191725715Y-114432143D01*
X191654287Y-114717857D01*
X191582858Y-114860714D01*
X191511429Y-114932143D01*
X191368572Y-115003571D01*
X191225715Y-115003571D01*
X191082858Y-114932143D01*
X191011429Y-114860714D01*
X190940001Y-114717857D01*
X190868572Y-114432143D01*
X190868572Y-114075000D01*
X190940001Y-113789286D01*
X191011429Y-113646429D01*
X191082858Y-113575000D01*
X191225715Y-113503571D01*
X203198201Y-89919940D02*
X203100627Y-89893796D01*
X202931626Y-89743933D01*
X202860197Y-89620215D01*
X202814913Y-89398924D01*
X202867202Y-89203777D01*
X202955206Y-89070490D01*
X203166928Y-88865774D01*
X203352504Y-88758631D01*
X203635655Y-88677633D01*
X203795087Y-88668063D01*
X203990234Y-88720353D01*
X204159235Y-88870215D01*
X204230664Y-88993933D01*
X204275948Y-89215224D01*
X204249803Y-89312798D01*
X176437143Y-87378571D02*
X176437143Y-85878571D01*
X176794286Y-85878571D01*
X177008571Y-85950000D01*
X177151429Y-86092857D01*
X177222857Y-86235714D01*
X177294286Y-86521429D01*
X177294286Y-86735714D01*
X177222857Y-87021429D01*
X177151429Y-87164286D01*
X177008571Y-87307143D01*
X176794286Y-87378571D01*
X176437143Y-87378571D01*
X166170783Y-105863640D02*
X166339785Y-105713777D01*
X166437358Y-105687633D01*
X166596790Y-105697202D01*
X166782367Y-105804345D01*
X166870370Y-105937633D01*
X166896516Y-106035206D01*
X166886945Y-106194638D01*
X166601231Y-106689510D01*
X165302193Y-105939510D01*
X165552193Y-105506497D01*
X165685481Y-105418494D01*
X165783055Y-105392349D01*
X165942487Y-105401919D01*
X166066204Y-105473347D01*
X166154208Y-105606634D01*
X166180353Y-105704208D01*
X166170783Y-105863640D01*
X165920783Y-106296653D01*
D10*
X168104761Y-107924049D02*
X168084149Y-107834969D01*
X171026698Y-106523246D02*
X171027735Y-106459389D01*
X171616846Y-105934353D02*
X170455179Y-105023545D01*
X170990655Y-102583833D02*
X171335220Y-101987029D01*
X171018808Y-105118732D02*
X171754671Y-105695633D01*
X169343139Y-107954556D02*
X169243804Y-107824528D01*
X170966003Y-104977232D02*
X170986678Y-105049063D01*
X170914453Y-106711159D02*
X170959866Y-106674482D01*
X171735811Y-103812606D02*
X171660213Y-103759745D01*
X168393103Y-109210205D02*
X168252451Y-109453821D01*
X170100393Y-110197537D02*
X169916993Y-110027565D01*
X170016787Y-106968203D02*
X170174889Y-107074022D01*
X170972359Y-106219364D02*
X170300731Y-105692458D01*
X168516163Y-107967560D02*
X168646679Y-108077000D01*
X170071979Y-105608308D02*
X170172225Y-105456896D01*
X170173678Y-107985640D02*
X170215076Y-107953976D01*
X168200538Y-107488818D02*
X168275597Y-107406672D01*
X170825586Y-107024148D02*
X170611646Y-107022416D01*
X171006332Y-106319600D02*
X170994270Y-106269092D01*
X168404221Y-107661748D02*
X168372098Y-107741928D01*
X169354192Y-107395492D02*
X169375338Y-107488945D01*
X171197991Y-103733197D02*
X171249577Y-103602488D01*
X170174889Y-107074022D02*
X170305162Y-107192582D01*
X169657935Y-106857553D02*
X169774496Y-106871283D01*
X170653783Y-106737954D02*
X170795425Y-106749121D01*
X172056976Y-105172026D02*
X171322574Y-104597792D01*
X170995993Y-104509168D02*
X170946251Y-104567964D01*
X170123021Y-108006761D02*
X170173678Y-107985640D01*
X169929148Y-108004017D02*
X170063009Y-108017284D01*
X169544534Y-106867009D02*
X169657935Y-106857553D01*
X171335220Y-101987029D02*
X173669568Y-103812200D01*
X171360037Y-103928425D02*
X171360216Y-103993435D01*
X169197819Y-107122397D02*
X169197819Y-107122397D01*
X170986678Y-105049063D02*
X171004284Y-105096247D01*
X168980124Y-107939536D02*
X168817874Y-108220561D01*
X171161183Y-102717310D02*
X170990655Y-102583833D01*
X168335561Y-108187471D02*
X168187424Y-108048332D01*
X171399409Y-104200930D02*
X171416493Y-104262281D01*
X170891701Y-104263707D02*
X170994263Y-104210164D01*
X170592954Y-104784911D02*
X170795372Y-104943554D01*
X171366402Y-103873661D02*
X171360037Y-103928425D01*
X168108918Y-107649368D02*
X168154351Y-107552877D01*
X170247167Y-107911732D02*
X170278352Y-107833319D01*
X169894095Y-106908152D02*
X170016787Y-106968203D01*
X170172225Y-105456896D02*
X170282748Y-105332444D01*
X172497111Y-104409690D02*
X171735811Y-103812606D01*
X169572422Y-107783904D02*
X169786646Y-107942978D01*
X170592954Y-104784911D02*
X170592954Y-104784911D01*
X169720710Y-110251216D02*
X169835793Y-110339648D01*
X171467124Y-103439345D02*
X171613687Y-103442210D01*
X169388379Y-107232417D02*
X169388379Y-107232417D01*
X172634911Y-104171013D02*
X172497111Y-104409690D01*
X168461743Y-107581878D02*
X168404221Y-107661748D01*
X171004284Y-105096247D02*
X171018808Y-105118732D01*
X172194806Y-104933297D02*
X172056976Y-105172026D01*
X169422211Y-107187299D02*
X169388379Y-107232417D01*
X173359859Y-103908531D02*
X171371198Y-102353553D01*
X170754224Y-104772204D02*
X170743069Y-104618366D01*
X169345977Y-106952020D02*
X169439008Y-106898865D01*
X171199099Y-106615704D02*
X171142092Y-106813073D01*
X169468522Y-108070605D02*
X169343139Y-107954556D01*
X170063009Y-108017284D02*
X170123021Y-108006761D01*
X168275597Y-107406672D02*
X168356327Y-107321103D01*
X171168617Y-106373134D02*
X171199099Y-106615704D01*
X173151199Y-104269941D02*
X173359859Y-103908531D01*
X170311260Y-109911081D02*
X170218001Y-110052753D01*
X170761786Y-104482006D02*
X170810397Y-104363170D01*
X170285401Y-107748189D02*
X170268171Y-107656292D01*
X168187424Y-108048332D02*
X168104761Y-107924049D01*
X171322574Y-104597792D02*
X171222446Y-104527200D01*
X169117107Y-107389773D02*
X169140713Y-107253187D01*
X168646679Y-108077000D02*
X168808494Y-107796728D01*
X171371799Y-104080373D02*
X171399409Y-104200930D01*
X170859634Y-106736009D02*
X170914453Y-106711159D01*
X170238765Y-106828865D02*
X170107285Y-106696455D01*
X171027735Y-106459389D02*
X171019164Y-106387214D01*
X170106756Y-108285040D02*
X169993096Y-108293216D01*
X170218001Y-110052753D02*
X170100393Y-110197537D01*
X171613687Y-103442210D02*
X171773823Y-103507287D01*
X170190073Y-105903642D02*
X170157180Y-106038515D01*
X170305162Y-107192582D02*
X170407515Y-107323902D01*
X170942190Y-104880657D02*
X170966003Y-104977232D01*
X169940624Y-106374201D02*
X169910307Y-106191171D01*
X171883741Y-103581764D02*
X172634911Y-104171013D01*
X170371647Y-109759069D02*
X170311260Y-109911081D01*
X169922053Y-106002508D02*
X169975975Y-105808231D01*
X170946251Y-104567964D02*
X170917758Y-104693715D01*
X168085540Y-107743361D02*
X168108918Y-107649368D01*
X169421978Y-107590362D02*
X169572422Y-107783904D01*
X170743069Y-104618366D02*
X170761786Y-104482006D01*
X168393332Y-107841010D02*
X168422343Y-107878301D01*
X171754671Y-105695633D02*
X171616846Y-105934353D01*
X170282748Y-105332444D02*
X171440686Y-106239471D01*
X171395801Y-103789321D02*
X171366402Y-103873661D01*
X169606925Y-110736059D02*
X168048773Y-109518842D01*
X170268171Y-107656292D02*
X170226837Y-107557626D01*
X171012814Y-106952573D02*
X170926421Y-106996848D01*
X171174119Y-106377385D02*
X171168617Y-106373134D01*
X168376118Y-107299505D02*
X168561327Y-107468974D01*
X170090721Y-109694541D02*
X170045747Y-109625412D01*
X169620120Y-108172610D02*
X169468522Y-108070605D01*
X169864062Y-107205850D02*
X169713461Y-107139638D01*
X169749904Y-108236998D02*
X169620120Y-108172610D01*
X171431852Y-104308677D02*
X171445551Y-104340211D01*
X170368905Y-109621785D02*
X170371647Y-109759069D01*
X171016076Y-106578763D02*
X171026698Y-106523246D01*
X171574058Y-103721469D02*
X171501315Y-103713685D01*
X170300731Y-105692458D02*
X170255201Y-105764898D01*
X169993096Y-108293216D02*
X169874221Y-108277215D01*
X170407515Y-107323902D02*
X170481967Y-107467947D01*
X170156384Y-106169553D02*
X170187777Y-106296739D01*
X169140713Y-107253187D02*
X169197819Y-107122397D01*
X170457280Y-108021772D02*
X170387061Y-108121804D01*
X170994270Y-106269092D02*
X170982925Y-106235683D01*
X170455179Y-105023545D02*
X170592954Y-104784911D01*
X169243804Y-107824528D02*
X169170589Y-107680401D01*
X168252451Y-109453821D02*
X169581713Y-110491966D01*
X171660213Y-103759745D02*
X171574058Y-103721469D01*
X170163982Y-107459133D02*
X170082553Y-107367653D01*
X168154351Y-107552877D02*
X168200538Y-107488818D01*
X170215076Y-107953976D02*
X170247167Y-107911732D01*
X169874221Y-108277215D02*
X169749904Y-108236998D01*
X170157180Y-106038515D02*
X170156384Y-106169553D01*
X171183073Y-103883136D02*
X171197991Y-103733197D01*
X168817874Y-108220561D02*
X168817874Y-108220561D01*
X170810397Y-104363170D02*
X170891701Y-104263707D01*
X170299841Y-109488692D02*
X170368905Y-109621785D01*
X169127098Y-107532189D02*
X169117107Y-107389773D01*
X171084726Y-106891277D02*
X171012814Y-106952573D01*
X171058622Y-104482731D02*
X170995993Y-104509168D01*
X169265623Y-107026537D02*
X169345977Y-106952020D01*
X171142092Y-106813073D02*
X171084726Y-106891277D01*
X171440686Y-106239471D02*
X171302911Y-106478105D01*
X168514244Y-108746464D02*
X168341129Y-108606228D01*
X168463269Y-107920475D02*
X168516163Y-107967560D01*
X170402355Y-106942100D02*
X170238765Y-106828865D01*
X170282748Y-105332444D02*
X170282748Y-105332444D01*
X168561327Y-107468974D02*
X168461743Y-107581878D01*
X173327553Y-104404587D02*
X173151199Y-104269941D01*
X170982925Y-106235683D02*
X170972359Y-106219364D01*
X169975975Y-105808231D02*
X170071979Y-105608308D01*
X171342816Y-103494373D02*
X171467124Y-103439345D01*
X169358571Y-107309986D02*
X169354192Y-107395492D01*
X171222446Y-104527200D02*
X171134128Y-104488750D01*
X170305277Y-108199005D02*
X170211831Y-108253434D01*
X170387061Y-108121804D02*
X170305277Y-108199005D01*
X169516426Y-107132494D02*
X169464886Y-107154063D01*
X168502264Y-108327134D02*
X168335561Y-108187471D01*
X170096238Y-109761373D02*
X170090721Y-109694541D01*
X170972359Y-106219364D02*
X170972359Y-106219364D01*
X168422343Y-107878301D02*
X168463269Y-107920475D01*
X171501315Y-103713685D02*
X171441837Y-103736283D01*
X171302911Y-106478105D02*
X171174119Y-106377385D01*
X170211831Y-108253434D02*
X170106756Y-108285040D01*
X170187777Y-106296739D02*
X170314570Y-106516787D01*
X173327553Y-104404587D02*
X173327553Y-104404587D01*
X169464886Y-107154063D02*
X169422211Y-107187299D01*
X170007899Y-106544897D02*
X169940624Y-106374201D01*
X170504651Y-106675397D02*
X170653783Y-106737954D01*
X168817874Y-108220561D02*
X170161804Y-109348548D01*
X170525891Y-107615392D02*
X170536433Y-107756856D01*
X171371198Y-102353553D02*
X171161183Y-102717310D01*
X169170589Y-107680401D02*
X169127098Y-107532189D01*
X168048773Y-109518842D02*
X168278021Y-109121773D01*
X170917758Y-104693715D02*
X170942190Y-104880657D01*
X170314570Y-106516787D02*
X170504651Y-106675397D01*
X173669568Y-103812200D02*
X173327553Y-104404587D01*
X168376259Y-107808601D02*
X168393332Y-107841010D01*
X168278021Y-109121773D02*
X168393103Y-109210205D01*
X169916993Y-110027565D02*
X170008813Y-109920827D01*
X168673729Y-108470227D02*
X168514244Y-108746464D01*
X170795372Y-104943554D02*
X170754224Y-104772204D01*
X168278021Y-109121773D02*
X168278021Y-109121773D01*
X168356327Y-107321103D02*
X168376118Y-107299505D01*
X169375338Y-107488945D02*
X169421978Y-107590362D01*
X171360216Y-103993435D02*
X171371799Y-104080373D01*
X170994263Y-104210164D02*
X171118067Y-104202569D01*
X170008813Y-109920827D02*
X170067017Y-109837594D01*
X171773823Y-103507287D02*
X171883741Y-103581764D01*
X171457592Y-104356874D02*
X172194806Y-104933297D01*
X171263133Y-104240908D02*
X171204762Y-104052409D01*
X170513546Y-107892310D02*
X170457280Y-108021772D01*
X171441837Y-103736283D02*
X171395801Y-103789321D01*
X168084149Y-107834969D02*
X168085540Y-107743361D01*
X170926421Y-106996848D02*
X170825586Y-107024148D01*
X170611646Y-107022416D02*
X170402355Y-106942100D01*
X168341129Y-108606228D02*
X168502264Y-108327134D01*
X170082553Y-107367653D02*
X169982569Y-107283230D01*
X169786646Y-107942978D02*
X169929148Y-108004017D01*
X169835793Y-110339648D02*
X169606925Y-110736059D01*
X171204762Y-104052409D02*
X171183073Y-103883136D01*
X170536433Y-107756856D02*
X170513546Y-107892310D01*
X169197819Y-107122397D02*
X169265623Y-107026537D01*
X170959866Y-106674482D02*
X170995955Y-106626094D01*
X169439008Y-106898865D02*
X169544534Y-106867009D01*
X170161804Y-109348548D02*
X170299841Y-109488692D01*
X169774496Y-106871283D02*
X169894095Y-106908152D01*
X170067017Y-109837594D02*
X170096238Y-109761373D01*
X169581713Y-110491966D02*
X169720710Y-110251216D01*
X170995955Y-106626094D02*
X171016076Y-106578763D01*
X170278352Y-107833319D02*
X170285401Y-107748189D01*
X169957134Y-109541481D02*
X168673729Y-108470227D01*
X170226837Y-107557626D02*
X170163982Y-107459133D01*
X168808494Y-107796728D02*
X168980124Y-107939536D01*
X171118067Y-104202569D02*
X171263133Y-104240908D01*
X170107285Y-106696455D02*
X170007899Y-106544897D01*
X170255201Y-105764898D02*
X170190073Y-105903642D01*
X169576901Y-107122687D02*
X169516426Y-107132494D01*
X168372098Y-107741928D02*
X168376259Y-107808601D01*
X171019164Y-106387214D02*
X171006332Y-106319600D01*
X171445551Y-104340211D02*
X171457592Y-104356874D01*
X171249577Y-103602488D02*
X171342816Y-103494373D01*
X170795425Y-106749121D02*
X170859634Y-106736009D01*
X169910307Y-106191171D02*
X169922053Y-106002508D01*
X169982569Y-107283230D02*
X169864062Y-107205850D01*
X169388379Y-107232417D02*
X169358571Y-107309986D01*
X169713461Y-107139638D02*
X169576901Y-107122687D01*
X170481967Y-107467947D02*
X170525891Y-107615392D01*
X171416493Y-104262281D02*
X171431852Y-104308677D01*
X170045747Y-109625412D02*
X169957134Y-109541481D01*
X171134128Y-104488750D02*
X171058622Y-104482731D01*
D14*
X175286814Y-93154664D02*
X172983186Y-91824664D01*
X168906814Y-104205148D02*
X175286814Y-93154664D01*
X166603186Y-102875148D02*
X172983186Y-91824664D01*
X168906814Y-104205148D02*
X166603186Y-102875148D01*
X168271814Y-105305000D02*
X167606814Y-106456814D01*
X167606814Y-106456814D02*
X166455000Y-105791814D01*
X177570000Y-121430000D02*
X177570000Y-126630000D01*
X182710000Y-121430000D02*
X177570000Y-121430000D01*
X185310000Y-126630000D02*
X177570000Y-126630000D01*
X182710000Y-121430000D02*
X182710000Y-124030000D01*
X182710000Y-124030000D02*
X185310000Y-124030000D01*
X185310000Y-124030000D02*
X185310000Y-126630000D01*
X183980000Y-121430000D02*
X185310000Y-121430000D01*
X185310000Y-121430000D02*
X185310000Y-122760000D01*
X187190000Y-124010000D02*
X187190000Y-126670000D01*
X194870000Y-124010000D02*
X187190000Y-124010000D01*
X194870000Y-126670000D02*
X187190000Y-126670000D01*
X194870000Y-124010000D02*
X194870000Y-126670000D01*
X196140000Y-124010000D02*
X197470000Y-124010000D01*
X197470000Y-124010000D02*
X197470000Y-125340000D01*
X182610000Y-120460000D02*
X182610000Y-118740000D01*
X182610000Y-118740000D02*
X178890000Y-118740000D01*
X178890000Y-118740000D02*
X178890000Y-120460000D01*
X178890000Y-120460000D02*
X182610000Y-120460000D01*
X183680000Y-119600000D02*
X182610000Y-119600000D01*
X177820000Y-119600000D02*
X178890000Y-119600000D01*
X212023186Y-106665336D02*
X214326814Y-105335336D01*
X204373186Y-93415147D02*
X212023186Y-106665336D01*
X206676814Y-92085147D02*
X214326814Y-105335336D01*
X204373186Y-93415147D02*
X206676814Y-92085147D01*
X203738186Y-92315295D02*
X203073186Y-91163481D01*
X203073186Y-91163481D02*
X204225000Y-90498481D01*
X193540000Y-119250000D02*
X198240000Y-119250000D01*
X193540000Y-122950000D02*
X198240000Y-122950000D01*
X193540000Y-122950000D02*
G75*
G02X193540000Y-119250000I0J1850000D01*
G01*
X198240000Y-122950000D02*
G75*
G03X198240000Y-119250000I0J1850000D01*
G01*
X207600000Y-114200000D02*
G75*
G02X207600000Y-112200000I0J1000000D01*
G01*
X207600000Y-112200000D02*
X207600000Y-110550000D01*
X207600000Y-110550000D02*
X171920000Y-110550000D01*
X171920000Y-110550000D02*
X171920000Y-115850000D01*
X171920000Y-115850000D02*
X207600000Y-115850000D01*
X207600000Y-115850000D02*
X207600000Y-114200000D01*
X199933000Y-124479000D02*
X201107000Y-124479000D01*
X199933000Y-126201000D02*
X201107000Y-126201000D01*
X204254148Y-121004675D02*
X203667148Y-122021389D01*
X202762852Y-120143675D02*
X202175852Y-121160389D01*
X187753000Y-120519000D02*
X188927000Y-120519000D01*
X187753000Y-122241000D02*
X188927000Y-122241000D01*
X207070000Y-97730000D02*
X204410000Y-97730000D01*
X207070000Y-105410000D02*
X207070000Y-97730000D01*
X204410000Y-105410000D02*
X204410000Y-97730000D01*
X207070000Y-105410000D02*
X204410000Y-105410000D01*
X207070000Y-106680000D02*
X207070000Y-108010000D01*
X207070000Y-108010000D02*
X205740000Y-108010000D01*
X176590000Y-97730000D02*
X173930000Y-97730000D01*
X176590000Y-105410000D02*
X176590000Y-97730000D01*
X173930000Y-105410000D02*
X173930000Y-97730000D01*
X176590000Y-105410000D02*
X173930000Y-105410000D01*
X176590000Y-106680000D02*
X176590000Y-108010000D01*
X176590000Y-108010000D02*
X175260000Y-108010000D01*
X176420000Y-108010000D02*
X179080000Y-108010000D01*
X176420000Y-100330000D02*
X176420000Y-108010000D01*
X179080000Y-100330000D02*
X179080000Y-108010000D01*
X176420000Y-100330000D02*
X179080000Y-100330000D01*
X176420000Y-99060000D02*
X176420000Y-97730000D01*
X176420000Y-97730000D02*
X177750000Y-97730000D01*
X176470000Y-97850000D02*
X179130000Y-97850000D01*
X176470000Y-90170000D02*
X176470000Y-97850000D01*
X179130000Y-90170000D02*
X179130000Y-97850000D01*
X176470000Y-90170000D02*
X179130000Y-90170000D01*
X176470000Y-88900000D02*
X176470000Y-87570000D01*
X176470000Y-87570000D02*
X177800000Y-87570000D01*
X179010000Y-108010000D02*
X181670000Y-108010000D01*
X179010000Y-100330000D02*
X179010000Y-108010000D01*
X181670000Y-100330000D02*
X181670000Y-108010000D01*
X179010000Y-100330000D02*
X181670000Y-100330000D01*
X179010000Y-99060000D02*
X179010000Y-97730000D01*
X179010000Y-97730000D02*
X180340000Y-97730000D01*
X179010000Y-97850000D02*
X181670000Y-97850000D01*
X179010000Y-90170000D02*
X179010000Y-97850000D01*
X181670000Y-90170000D02*
X181670000Y-97850000D01*
X179010000Y-90170000D02*
X181670000Y-90170000D01*
X179010000Y-88900000D02*
X179010000Y-87570000D01*
X179010000Y-87570000D02*
X180340000Y-87570000D01*
X181550000Y-97850000D02*
X184210000Y-97850000D01*
X181550000Y-90170000D02*
X181550000Y-97850000D01*
X184210000Y-90170000D02*
X184210000Y-97850000D01*
X181550000Y-90170000D02*
X184210000Y-90170000D01*
X181550000Y-88900000D02*
X181550000Y-87570000D01*
X181550000Y-87570000D02*
X182880000Y-87570000D01*
X181550000Y-108010000D02*
X184210000Y-108010000D01*
X181550000Y-100330000D02*
X181550000Y-108010000D01*
X184210000Y-100330000D02*
X184210000Y-108010000D01*
X181550000Y-100330000D02*
X184210000Y-100330000D01*
X181550000Y-99060000D02*
X181550000Y-97730000D01*
X181550000Y-97730000D02*
X182880000Y-97730000D01*
X184090000Y-97850000D02*
X186750000Y-97850000D01*
X184090000Y-90170000D02*
X184090000Y-97850000D01*
X186750000Y-90170000D02*
X186750000Y-97850000D01*
X184090000Y-90170000D02*
X186750000Y-90170000D01*
X184090000Y-88900000D02*
X184090000Y-87570000D01*
X184090000Y-87570000D02*
X185420000Y-87570000D01*
X184090000Y-108010000D02*
X186750000Y-108010000D01*
X184090000Y-100330000D02*
X184090000Y-108010000D01*
X186750000Y-100330000D02*
X186750000Y-108010000D01*
X184090000Y-100330000D02*
X186750000Y-100330000D01*
X184090000Y-99060000D02*
X184090000Y-97730000D01*
X184090000Y-97730000D02*
X185420000Y-97730000D01*
X186630000Y-97850000D02*
X189290000Y-97850000D01*
X186630000Y-90170000D02*
X186630000Y-97850000D01*
X189290000Y-90170000D02*
X189290000Y-97850000D01*
X186630000Y-90170000D02*
X189290000Y-90170000D01*
X186630000Y-88900000D02*
X186630000Y-87570000D01*
X186630000Y-87570000D02*
X187960000Y-87570000D01*
X186630000Y-108010000D02*
X189290000Y-108010000D01*
X186630000Y-100330000D02*
X186630000Y-108010000D01*
X189290000Y-100330000D02*
X189290000Y-108010000D01*
X186630000Y-100330000D02*
X189290000Y-100330000D01*
X186630000Y-99060000D02*
X186630000Y-97730000D01*
X186630000Y-97730000D02*
X187960000Y-97730000D01*
X189170000Y-97850000D02*
X191830000Y-97850000D01*
X189170000Y-90170000D02*
X189170000Y-97850000D01*
X191830000Y-90170000D02*
X191830000Y-97850000D01*
X189170000Y-90170000D02*
X191830000Y-90170000D01*
X189170000Y-88900000D02*
X189170000Y-87570000D01*
X189170000Y-87570000D02*
X190500000Y-87570000D01*
X189170000Y-108010000D02*
X191830000Y-108010000D01*
X189170000Y-100330000D02*
X189170000Y-108010000D01*
X191830000Y-100330000D02*
X191830000Y-108010000D01*
X189170000Y-100330000D02*
X191830000Y-100330000D01*
X189170000Y-99060000D02*
X189170000Y-97730000D01*
X189170000Y-97730000D02*
X190500000Y-97730000D01*
X191710000Y-108010000D02*
X194370000Y-108010000D01*
X191710000Y-100330000D02*
X191710000Y-108010000D01*
X194370000Y-100330000D02*
X194370000Y-108010000D01*
X191710000Y-100330000D02*
X194370000Y-100330000D01*
X191710000Y-99060000D02*
X191710000Y-97730000D01*
X191710000Y-97730000D02*
X193040000Y-97730000D01*
X191710000Y-97850000D02*
X194370000Y-97850000D01*
X191710000Y-90170000D02*
X191710000Y-97850000D01*
X194370000Y-90170000D02*
X194370000Y-97850000D01*
X191710000Y-90170000D02*
X194370000Y-90170000D01*
X191710000Y-88900000D02*
X191710000Y-87570000D01*
X191710000Y-87570000D02*
X193040000Y-87570000D01*
X194250000Y-108010000D02*
X196910000Y-108010000D01*
X194250000Y-100330000D02*
X194250000Y-108010000D01*
X196910000Y-100330000D02*
X196910000Y-108010000D01*
X194250000Y-100330000D02*
X196910000Y-100330000D01*
X194250000Y-99060000D02*
X194250000Y-97730000D01*
X194250000Y-97730000D02*
X195580000Y-97730000D01*
X194250000Y-97850000D02*
X196910000Y-97850000D01*
X194250000Y-90170000D02*
X194250000Y-97850000D01*
X196910000Y-90170000D02*
X196910000Y-97850000D01*
X194250000Y-90170000D02*
X196910000Y-90170000D01*
X194250000Y-88900000D02*
X194250000Y-87570000D01*
X194250000Y-87570000D02*
X195580000Y-87570000D01*
X196790000Y-97850000D02*
X199450000Y-97850000D01*
X196790000Y-90170000D02*
X196790000Y-97850000D01*
X199450000Y-90170000D02*
X199450000Y-97850000D01*
X196790000Y-90170000D02*
X199450000Y-90170000D01*
X196790000Y-88900000D02*
X196790000Y-87570000D01*
X196790000Y-87570000D02*
X198120000Y-87570000D01*
X196790000Y-108010000D02*
X199450000Y-108010000D01*
X196790000Y-100330000D02*
X196790000Y-108010000D01*
X199450000Y-100330000D02*
X199450000Y-108010000D01*
X196790000Y-100330000D02*
X199450000Y-100330000D01*
X196790000Y-99060000D02*
X196790000Y-97730000D01*
X196790000Y-97730000D02*
X198120000Y-97730000D01*
X199330000Y-97850000D02*
X201990000Y-97850000D01*
X199330000Y-90170000D02*
X199330000Y-97850000D01*
X201990000Y-90170000D02*
X201990000Y-97850000D01*
X199330000Y-90170000D02*
X201990000Y-90170000D01*
X199330000Y-88900000D02*
X199330000Y-87570000D01*
X199330000Y-87570000D02*
X200660000Y-87570000D01*
X199330000Y-108010000D02*
X201990000Y-108010000D01*
X199330000Y-100330000D02*
X199330000Y-108010000D01*
X201990000Y-100330000D02*
X201990000Y-108010000D01*
X199330000Y-100330000D02*
X201990000Y-100330000D01*
X199330000Y-99060000D02*
X199330000Y-97730000D01*
X199330000Y-97730000D02*
X200660000Y-97730000D01*
X201870000Y-108010000D02*
X204530000Y-108010000D01*
X201870000Y-100330000D02*
X201870000Y-108010000D01*
X204530000Y-100330000D02*
X204530000Y-108010000D01*
X201870000Y-100330000D02*
X204530000Y-100330000D01*
X201870000Y-99060000D02*
X201870000Y-97730000D01*
X201870000Y-97730000D02*
X203200000Y-97730000D01*
X177380000Y-83680000D02*
X177380000Y-86340000D01*
X195220000Y-83680000D02*
X177380000Y-83680000D01*
X195220000Y-86340000D02*
X177380000Y-86340000D01*
X195220000Y-83680000D02*
X195220000Y-86340000D01*
X196490000Y-83680000D02*
X197820000Y-83680000D01*
X197820000Y-83680000D02*
X197820000Y-85010000D01*
M02*
