G04 #@! TF.FileFunction,Other,User*
%FSLAX46Y46*%
G04 Gerber Fmt 4.6, Leading zero omitted, Abs format (unit mm)*
G04 Created by KiCad (PCBNEW 4.0.7-e2-6376~58~ubuntu14.04.1) date Sat Apr 21 16:58:32 2018*
%MOMM*%
%LPD*%
G01*
G04 APERTURE LIST*
%ADD10C,0.100000*%
%ADD11C,0.050000*%
G04 APERTURE END LIST*
D10*
D11*
X167778846Y-107098846D02*
X175928846Y-92982632D01*
X175928846Y-92982632D02*
X172811154Y-91182632D01*
X172811154Y-91182632D02*
X164661154Y-105298846D01*
X164661154Y-105298846D02*
X167778846Y-107098846D01*
X185780000Y-120960000D02*
X177130000Y-120960000D01*
X177130000Y-120960000D02*
X177130000Y-127110000D01*
X177130000Y-127110000D02*
X185780000Y-127110000D01*
X185780000Y-127110000D02*
X185780000Y-120960000D01*
X197940000Y-123540000D02*
X186740000Y-123540000D01*
X186740000Y-123540000D02*
X186740000Y-127140000D01*
X186740000Y-127140000D02*
X197940000Y-127140000D01*
X197940000Y-127140000D02*
X197940000Y-123540000D01*
X185510000Y-120750000D02*
X185510000Y-118450000D01*
X185510000Y-118450000D02*
X175960000Y-118450000D01*
X175960000Y-118450000D02*
X175960000Y-120750000D01*
X175960000Y-120750000D02*
X185510000Y-120750000D01*
X202431154Y-90991449D02*
X211856154Y-107316028D01*
X211856154Y-107316028D02*
X214973846Y-105516028D01*
X214973846Y-105516028D02*
X205548846Y-89191449D01*
X205548846Y-89191449D02*
X202431154Y-90991449D01*
X191390000Y-119000000D02*
X191390000Y-123200000D01*
X191390000Y-123200000D02*
X200390000Y-123200000D01*
X200390000Y-123200000D02*
X200390000Y-119000000D01*
X200390000Y-119000000D02*
X191390000Y-119000000D01*
X207820000Y-108290000D02*
X171720000Y-108290000D01*
X171720000Y-108290000D02*
X171720000Y-118090000D01*
X171720000Y-118090000D02*
X207820000Y-118090000D01*
X207820000Y-118090000D02*
X207820000Y-108290000D01*
X198220000Y-124190000D02*
X198220000Y-126490000D01*
X198220000Y-126490000D02*
X202820000Y-126490000D01*
X202820000Y-126490000D02*
X202820000Y-124190000D01*
X202820000Y-124190000D02*
X198220000Y-124190000D01*
X205360929Y-119665673D02*
X203369071Y-118515673D01*
X203369071Y-118515673D02*
X201069071Y-122499390D01*
X201069071Y-122499390D02*
X203060929Y-123649390D01*
X203060929Y-123649390D02*
X205360929Y-119665673D01*
X186040000Y-120230000D02*
X186040000Y-122530000D01*
X186040000Y-122530000D02*
X190640000Y-122530000D01*
X190640000Y-122530000D02*
X190640000Y-120230000D01*
X190640000Y-120230000D02*
X186040000Y-120230000D01*
X207540000Y-108480000D02*
X207540000Y-97280000D01*
X207540000Y-97280000D02*
X203940000Y-97280000D01*
X203940000Y-97280000D02*
X203940000Y-108480000D01*
X203940000Y-108480000D02*
X207540000Y-108480000D01*
X177060000Y-108480000D02*
X177060000Y-97280000D01*
X177060000Y-97280000D02*
X173460000Y-97280000D01*
X173460000Y-97280000D02*
X173460000Y-108480000D01*
X173460000Y-108480000D02*
X177060000Y-108480000D01*
X175950000Y-97260000D02*
X175950000Y-108460000D01*
X175950000Y-108460000D02*
X179550000Y-108460000D01*
X179550000Y-108460000D02*
X179550000Y-97260000D01*
X179550000Y-97260000D02*
X175950000Y-97260000D01*
X176000000Y-87100000D02*
X176000000Y-98300000D01*
X176000000Y-98300000D02*
X179600000Y-98300000D01*
X179600000Y-98300000D02*
X179600000Y-87100000D01*
X179600000Y-87100000D02*
X176000000Y-87100000D01*
X178540000Y-97260000D02*
X178540000Y-108460000D01*
X178540000Y-108460000D02*
X182140000Y-108460000D01*
X182140000Y-108460000D02*
X182140000Y-97260000D01*
X182140000Y-97260000D02*
X178540000Y-97260000D01*
X178540000Y-87100000D02*
X178540000Y-98300000D01*
X178540000Y-98300000D02*
X182140000Y-98300000D01*
X182140000Y-98300000D02*
X182140000Y-87100000D01*
X182140000Y-87100000D02*
X178540000Y-87100000D01*
X181080000Y-87100000D02*
X181080000Y-98300000D01*
X181080000Y-98300000D02*
X184680000Y-98300000D01*
X184680000Y-98300000D02*
X184680000Y-87100000D01*
X184680000Y-87100000D02*
X181080000Y-87100000D01*
X181080000Y-97260000D02*
X181080000Y-108460000D01*
X181080000Y-108460000D02*
X184680000Y-108460000D01*
X184680000Y-108460000D02*
X184680000Y-97260000D01*
X184680000Y-97260000D02*
X181080000Y-97260000D01*
X183620000Y-87100000D02*
X183620000Y-98300000D01*
X183620000Y-98300000D02*
X187220000Y-98300000D01*
X187220000Y-98300000D02*
X187220000Y-87100000D01*
X187220000Y-87100000D02*
X183620000Y-87100000D01*
X183620000Y-97260000D02*
X183620000Y-108460000D01*
X183620000Y-108460000D02*
X187220000Y-108460000D01*
X187220000Y-108460000D02*
X187220000Y-97260000D01*
X187220000Y-97260000D02*
X183620000Y-97260000D01*
X186160000Y-87100000D02*
X186160000Y-98300000D01*
X186160000Y-98300000D02*
X189760000Y-98300000D01*
X189760000Y-98300000D02*
X189760000Y-87100000D01*
X189760000Y-87100000D02*
X186160000Y-87100000D01*
X186160000Y-97260000D02*
X186160000Y-108460000D01*
X186160000Y-108460000D02*
X189760000Y-108460000D01*
X189760000Y-108460000D02*
X189760000Y-97260000D01*
X189760000Y-97260000D02*
X186160000Y-97260000D01*
X188700000Y-87100000D02*
X188700000Y-98300000D01*
X188700000Y-98300000D02*
X192300000Y-98300000D01*
X192300000Y-98300000D02*
X192300000Y-87100000D01*
X192300000Y-87100000D02*
X188700000Y-87100000D01*
X188700000Y-97260000D02*
X188700000Y-108460000D01*
X188700000Y-108460000D02*
X192300000Y-108460000D01*
X192300000Y-108460000D02*
X192300000Y-97260000D01*
X192300000Y-97260000D02*
X188700000Y-97260000D01*
X191240000Y-97260000D02*
X191240000Y-108460000D01*
X191240000Y-108460000D02*
X194840000Y-108460000D01*
X194840000Y-108460000D02*
X194840000Y-97260000D01*
X194840000Y-97260000D02*
X191240000Y-97260000D01*
X191240000Y-87100000D02*
X191240000Y-98300000D01*
X191240000Y-98300000D02*
X194840000Y-98300000D01*
X194840000Y-98300000D02*
X194840000Y-87100000D01*
X194840000Y-87100000D02*
X191240000Y-87100000D01*
X193780000Y-97260000D02*
X193780000Y-108460000D01*
X193780000Y-108460000D02*
X197380000Y-108460000D01*
X197380000Y-108460000D02*
X197380000Y-97260000D01*
X197380000Y-97260000D02*
X193780000Y-97260000D01*
X193780000Y-87100000D02*
X193780000Y-98300000D01*
X193780000Y-98300000D02*
X197380000Y-98300000D01*
X197380000Y-98300000D02*
X197380000Y-87100000D01*
X197380000Y-87100000D02*
X193780000Y-87100000D01*
X196320000Y-87100000D02*
X196320000Y-98300000D01*
X196320000Y-98300000D02*
X199920000Y-98300000D01*
X199920000Y-98300000D02*
X199920000Y-87100000D01*
X199920000Y-87100000D02*
X196320000Y-87100000D01*
X196320000Y-97260000D02*
X196320000Y-108460000D01*
X196320000Y-108460000D02*
X199920000Y-108460000D01*
X199920000Y-108460000D02*
X199920000Y-97260000D01*
X199920000Y-97260000D02*
X196320000Y-97260000D01*
X198860000Y-87100000D02*
X198860000Y-98300000D01*
X198860000Y-98300000D02*
X202460000Y-98300000D01*
X202460000Y-98300000D02*
X202460000Y-87100000D01*
X202460000Y-87100000D02*
X198860000Y-87100000D01*
X198860000Y-97260000D02*
X198860000Y-108460000D01*
X198860000Y-108460000D02*
X202460000Y-108460000D01*
X202460000Y-108460000D02*
X202460000Y-97260000D01*
X202460000Y-97260000D02*
X198860000Y-97260000D01*
X201400000Y-97260000D02*
X201400000Y-108460000D01*
X201400000Y-108460000D02*
X205000000Y-108460000D01*
X205000000Y-108460000D02*
X205000000Y-97260000D01*
X205000000Y-97260000D02*
X201400000Y-97260000D01*
X198290000Y-83210000D02*
X176940000Y-83210000D01*
X176940000Y-83210000D02*
X176940000Y-86810000D01*
X176940000Y-86810000D02*
X198290000Y-86810000D01*
X198290000Y-86810000D02*
X198290000Y-83210000D01*
M02*
