G04 #@! TF.FileFunction,Legend,Bot*
%FSLAX46Y46*%
G04 Gerber Fmt 4.6, Leading zero omitted, Abs format (unit mm)*
G04 Created by KiCad (PCBNEW 4.0.7-e2-6376~58~ubuntu14.04.1) date Sat Apr 21 16:58:32 2018*
%MOMM*%
%LPD*%
G01*
G04 APERTURE LIST*
%ADD10C,0.100000*%
%ADD11C,0.300000*%
G04 APERTURE END LIST*
D10*
D11*
X196014286Y-112482143D02*
X195871429Y-112553571D01*
X195585714Y-112553571D01*
X195442857Y-112482143D01*
X195371429Y-112339286D01*
X195371429Y-112267857D01*
X195442857Y-112125000D01*
X195585714Y-112053571D01*
X195800000Y-112053571D01*
X195942857Y-111982143D01*
X196014286Y-111839286D01*
X196014286Y-111767857D01*
X195942857Y-111625000D01*
X195800000Y-111553571D01*
X195585714Y-111553571D01*
X195442857Y-111625000D01*
X194942857Y-111553571D02*
X194371428Y-111553571D01*
X194728571Y-111053571D02*
X194728571Y-112339286D01*
X194657143Y-112482143D01*
X194514285Y-112553571D01*
X194371428Y-112553571D01*
X193228571Y-112553571D02*
X193228571Y-111767857D01*
X193300000Y-111625000D01*
X193442857Y-111553571D01*
X193728571Y-111553571D01*
X193871428Y-111625000D01*
X193228571Y-112482143D02*
X193371428Y-112553571D01*
X193728571Y-112553571D01*
X193871428Y-112482143D01*
X193942857Y-112339286D01*
X193942857Y-112196429D01*
X193871428Y-112053571D01*
X193728571Y-111982143D01*
X193371428Y-111982143D01*
X193228571Y-111910714D01*
X191871428Y-112482143D02*
X192014285Y-112553571D01*
X192299999Y-112553571D01*
X192442857Y-112482143D01*
X192514285Y-112410714D01*
X192585714Y-112267857D01*
X192585714Y-111839286D01*
X192514285Y-111696429D01*
X192442857Y-111625000D01*
X192299999Y-111553571D01*
X192014285Y-111553571D01*
X191871428Y-111625000D01*
X191228571Y-112553571D02*
X191228571Y-111053571D01*
X191085714Y-111982143D02*
X190657143Y-112553571D01*
X190657143Y-111553571D02*
X191228571Y-112125000D01*
X189371428Y-112553571D02*
X189371428Y-111767857D01*
X189442857Y-111625000D01*
X189585714Y-111553571D01*
X189871428Y-111553571D01*
X190014285Y-111625000D01*
X189371428Y-112482143D02*
X189514285Y-112553571D01*
X189871428Y-112553571D01*
X190014285Y-112482143D01*
X190085714Y-112339286D01*
X190085714Y-112196429D01*
X190014285Y-112053571D01*
X189871428Y-111982143D01*
X189514285Y-111982143D01*
X189371428Y-111910714D01*
X188657142Y-112553571D02*
X188657142Y-111053571D01*
X188657142Y-111625000D02*
X188514285Y-111553571D01*
X188228571Y-111553571D01*
X188085714Y-111625000D01*
X188014285Y-111696429D01*
X187942856Y-111839286D01*
X187942856Y-112267857D01*
X188014285Y-112410714D01*
X188085714Y-112482143D01*
X188228571Y-112553571D01*
X188514285Y-112553571D01*
X188657142Y-112482143D01*
X187085713Y-112553571D02*
X187228571Y-112482143D01*
X187299999Y-112339286D01*
X187299999Y-111053571D01*
X185942857Y-112482143D02*
X186085714Y-112553571D01*
X186371428Y-112553571D01*
X186514285Y-112482143D01*
X186585714Y-112339286D01*
X186585714Y-111767857D01*
X186514285Y-111625000D01*
X186371428Y-111553571D01*
X186085714Y-111553571D01*
X185942857Y-111625000D01*
X185871428Y-111767857D01*
X185871428Y-111910714D01*
X186585714Y-112053571D01*
X184085714Y-111553571D02*
X184085714Y-113053571D01*
X184085714Y-111625000D02*
X183942857Y-111553571D01*
X183657143Y-111553571D01*
X183514286Y-111625000D01*
X183442857Y-111696429D01*
X183371428Y-111839286D01*
X183371428Y-112267857D01*
X183442857Y-112410714D01*
X183514286Y-112482143D01*
X183657143Y-112553571D01*
X183942857Y-112553571D01*
X184085714Y-112482143D01*
X182728571Y-112553571D02*
X182728571Y-111553571D01*
X182728571Y-111839286D02*
X182657143Y-111696429D01*
X182585714Y-111625000D01*
X182442857Y-111553571D01*
X182300000Y-111553571D01*
X181585714Y-112553571D02*
X181728572Y-112482143D01*
X181800000Y-112410714D01*
X181871429Y-112267857D01*
X181871429Y-111839286D01*
X181800000Y-111696429D01*
X181728572Y-111625000D01*
X181585714Y-111553571D01*
X181371429Y-111553571D01*
X181228572Y-111625000D01*
X181157143Y-111696429D01*
X181085714Y-111839286D01*
X181085714Y-112267857D01*
X181157143Y-112410714D01*
X181228572Y-112482143D01*
X181371429Y-112553571D01*
X181585714Y-112553571D01*
X180657143Y-111553571D02*
X180085714Y-111553571D01*
X180442857Y-111053571D02*
X180442857Y-112339286D01*
X180371429Y-112482143D01*
X180228571Y-112553571D01*
X180085714Y-112553571D01*
X179371428Y-112553571D02*
X179514286Y-112482143D01*
X179585714Y-112410714D01*
X179657143Y-112267857D01*
X179657143Y-111839286D01*
X179585714Y-111696429D01*
X179514286Y-111625000D01*
X179371428Y-111553571D01*
X179157143Y-111553571D01*
X179014286Y-111625000D01*
X178942857Y-111696429D01*
X178871428Y-111839286D01*
X178871428Y-112267857D01*
X178942857Y-112410714D01*
X179014286Y-112482143D01*
X179157143Y-112553571D01*
X179371428Y-112553571D01*
X178442857Y-111553571D02*
X177871428Y-111553571D01*
X178228571Y-111053571D02*
X178228571Y-112339286D01*
X178157143Y-112482143D01*
X178014285Y-112553571D01*
X177871428Y-112553571D01*
X177514285Y-111553571D02*
X177157142Y-112553571D01*
X176800000Y-111553571D02*
X177157142Y-112553571D01*
X177300000Y-112910714D01*
X177371428Y-112982143D01*
X177514285Y-113053571D01*
X176228571Y-111553571D02*
X176228571Y-113053571D01*
X176228571Y-111625000D02*
X176085714Y-111553571D01*
X175800000Y-111553571D01*
X175657143Y-111625000D01*
X175585714Y-111696429D01*
X175514285Y-111839286D01*
X175514285Y-112267857D01*
X175585714Y-112410714D01*
X175657143Y-112482143D01*
X175800000Y-112553571D01*
X176085714Y-112553571D01*
X176228571Y-112482143D01*
X174300000Y-112482143D02*
X174442857Y-112553571D01*
X174728571Y-112553571D01*
X174871428Y-112482143D01*
X174942857Y-112339286D01*
X174942857Y-111767857D01*
X174871428Y-111625000D01*
X174728571Y-111553571D01*
X174442857Y-111553571D01*
X174300000Y-111625000D01*
X174228571Y-111767857D01*
X174228571Y-111910714D01*
X174942857Y-112053571D01*
X195942857Y-115103571D02*
X195942857Y-113603571D01*
X195300000Y-115103571D02*
X195300000Y-114317857D01*
X195371429Y-114175000D01*
X195514286Y-114103571D01*
X195728571Y-114103571D01*
X195871429Y-114175000D01*
X195942857Y-114246429D01*
X194014286Y-115032143D02*
X194157143Y-115103571D01*
X194442857Y-115103571D01*
X194585714Y-115032143D01*
X194657143Y-114889286D01*
X194657143Y-114317857D01*
X194585714Y-114175000D01*
X194442857Y-114103571D01*
X194157143Y-114103571D01*
X194014286Y-114175000D01*
X193942857Y-114317857D01*
X193942857Y-114460714D01*
X194657143Y-114603571D01*
X193442857Y-115103571D02*
X192657143Y-114103571D01*
X193442857Y-114103571D02*
X192657143Y-115103571D01*
X191442857Y-115103571D02*
X191442857Y-114317857D01*
X191514286Y-114175000D01*
X191657143Y-114103571D01*
X191942857Y-114103571D01*
X192085714Y-114175000D01*
X191442857Y-115032143D02*
X191585714Y-115103571D01*
X191942857Y-115103571D01*
X192085714Y-115032143D01*
X192157143Y-114889286D01*
X192157143Y-114746429D01*
X192085714Y-114603571D01*
X191942857Y-114532143D01*
X191585714Y-114532143D01*
X191442857Y-114460714D01*
X190085714Y-114103571D02*
X190085714Y-115317857D01*
X190157143Y-115460714D01*
X190228571Y-115532143D01*
X190371428Y-115603571D01*
X190585714Y-115603571D01*
X190728571Y-115532143D01*
X190085714Y-115032143D02*
X190228571Y-115103571D01*
X190514285Y-115103571D01*
X190657143Y-115032143D01*
X190728571Y-114960714D01*
X190800000Y-114817857D01*
X190800000Y-114389286D01*
X190728571Y-114246429D01*
X190657143Y-114175000D01*
X190514285Y-114103571D01*
X190228571Y-114103571D01*
X190085714Y-114175000D01*
X189157142Y-115103571D02*
X189300000Y-115032143D01*
X189371428Y-114960714D01*
X189442857Y-114817857D01*
X189442857Y-114389286D01*
X189371428Y-114246429D01*
X189300000Y-114175000D01*
X189157142Y-114103571D01*
X188942857Y-114103571D01*
X188800000Y-114175000D01*
X188728571Y-114246429D01*
X188657142Y-114389286D01*
X188657142Y-114817857D01*
X188728571Y-114960714D01*
X188800000Y-115032143D01*
X188942857Y-115103571D01*
X189157142Y-115103571D01*
X188014285Y-114103571D02*
X188014285Y-115103571D01*
X188014285Y-114246429D02*
X187942857Y-114175000D01*
X187799999Y-114103571D01*
X187585714Y-114103571D01*
X187442857Y-114175000D01*
X187371428Y-114317857D01*
X187371428Y-115103571D01*
X185657142Y-114103571D02*
X185299999Y-115103571D01*
X184942857Y-114103571D01*
X183585714Y-115103571D02*
X184442857Y-115103571D01*
X184014285Y-115103571D02*
X184014285Y-113603571D01*
X184157142Y-113817857D01*
X184300000Y-113960714D01*
X184442857Y-114032143D01*
X182942857Y-114960714D02*
X182871429Y-115032143D01*
X182942857Y-115103571D01*
X183014286Y-115032143D01*
X182942857Y-114960714D01*
X182942857Y-115103571D01*
X181942857Y-113603571D02*
X181800000Y-113603571D01*
X181657143Y-113675000D01*
X181585714Y-113746429D01*
X181514285Y-113889286D01*
X181442857Y-114175000D01*
X181442857Y-114532143D01*
X181514285Y-114817857D01*
X181585714Y-114960714D01*
X181657143Y-115032143D01*
X181800000Y-115103571D01*
X181942857Y-115103571D01*
X182085714Y-115032143D01*
X182157143Y-114960714D01*
X182228571Y-114817857D01*
X182300000Y-114532143D01*
X182300000Y-114175000D01*
X182228571Y-113889286D01*
X182157143Y-113746429D01*
X182085714Y-113675000D01*
X181942857Y-113603571D01*
D10*
X201550000Y-112723400D02*
X201644510Y-112814180D01*
X202611580Y-112824860D02*
X202665230Y-112698120D01*
X200164480Y-112882210D02*
X200196480Y-112921050D01*
X201640010Y-113650710D02*
X201585540Y-113671700D01*
X203126340Y-112433470D02*
X202996290Y-112385620D01*
X203351390Y-112625100D02*
X203244720Y-112513330D01*
X203406890Y-113738164D02*
X203470730Y-113643820D01*
X200408190Y-112409160D02*
X200132640Y-112409160D01*
X203671040Y-112589720D02*
X203995480Y-112589720D01*
X201732460Y-113566610D02*
X201688940Y-113615660D01*
X202748360Y-112616800D02*
X202798480Y-112596460D01*
X202324040Y-113191660D02*
X202361580Y-113363760D01*
X203326970Y-113813359D02*
X203406890Y-113738164D01*
X199300710Y-112897550D02*
X199321160Y-112925180D01*
X203013390Y-113673110D02*
X202929830Y-113660910D01*
X205580710Y-114386927D02*
X205302660Y-114386927D01*
X199056620Y-112469330D02*
X198919250Y-112407280D01*
X203502480Y-112911610D02*
X203439540Y-112760570D01*
X202996290Y-112385620D02*
X202854470Y-112369680D01*
X197751935Y-114587230D02*
X198435960Y-114587230D01*
X199658620Y-112386600D02*
X199531780Y-112407280D01*
X200112610Y-112828390D02*
X200164480Y-112882210D01*
X202798480Y-112596460D02*
X202854470Y-112589720D01*
X201302890Y-112619620D02*
X201436120Y-112658570D01*
X199434180Y-112469330D02*
X199365710Y-112572750D01*
X200040940Y-112759480D02*
X200112610Y-112828390D01*
X203561780Y-111713150D02*
X203447300Y-111740280D01*
X204550980Y-114704581D02*
X204712870Y-114728290D01*
X202854470Y-112589720D02*
X202936510Y-112602690D01*
X202540290Y-112466790D02*
X202460000Y-112542250D01*
X204598180Y-114355515D02*
X204569860Y-114236808D01*
X202320790Y-112865550D02*
X202311510Y-113001830D01*
X201835160Y-112638870D02*
X201691780Y-112521100D01*
X204161550Y-111957620D02*
X204095300Y-111823890D01*
X203252320Y-113443840D02*
X203196930Y-113566400D01*
X201474540Y-113672520D02*
X201421100Y-113653960D01*
X202854470Y-112589720D02*
X202854470Y-112589720D01*
X204300390Y-114317591D02*
X204352680Y-114507207D01*
X202703930Y-112650650D02*
X202748360Y-112616800D01*
X204433530Y-114633564D02*
X204550980Y-114704581D01*
X202936510Y-112602690D02*
X203012730Y-112641650D01*
X199891260Y-112644850D02*
X200040940Y-112759480D01*
X205302660Y-114386927D02*
X205321710Y-114530807D01*
X204283830Y-112589720D02*
X204602790Y-112589720D01*
X198435960Y-114587230D02*
X198435960Y-114587230D01*
X202854470Y-112369680D02*
X202854470Y-112369680D01*
X200761910Y-112414280D02*
X200968460Y-113870597D01*
X202854470Y-112369680D02*
X202737550Y-112380470D01*
X198719110Y-112912750D02*
X198711190Y-112820850D01*
X205064980Y-112716680D02*
X205346290Y-112716680D01*
X203896850Y-112076050D02*
X203912900Y-112132580D01*
X202311510Y-113001830D02*
X202324040Y-113191660D01*
X200761910Y-112414280D02*
X200761910Y-112414280D01*
X203995480Y-112589720D02*
X204300390Y-114317591D01*
X202460000Y-112542250D02*
X202395050Y-112635730D01*
X203447300Y-111740280D02*
X203418760Y-111746620D01*
X201106210Y-112369680D02*
X200924900Y-112380790D01*
X199531780Y-112407280D02*
X199434180Y-112469330D01*
X199321160Y-112925180D02*
X199329620Y-112943940D01*
X199913290Y-112455890D02*
X199785790Y-112403920D01*
X197990163Y-114367179D02*
X197637895Y-111867460D01*
X201522500Y-112436940D02*
X201327290Y-112386500D01*
X203270760Y-113289910D02*
X203252320Y-113443840D01*
X201244010Y-113870597D02*
X201221180Y-113708700D01*
X198435960Y-114587230D02*
X198407540Y-114367179D01*
X203749070Y-111681250D02*
X203670390Y-111689220D01*
X201949300Y-112782480D02*
X201835160Y-112638870D01*
X201150210Y-112606650D02*
X201302890Y-112619620D01*
X203196930Y-113566400D02*
X203157690Y-113613110D01*
X201691780Y-112521100D02*
X201522500Y-112436940D01*
X202624440Y-113258510D02*
X202601330Y-113129710D01*
X203472910Y-111991750D02*
X203620430Y-111961960D01*
X203859580Y-112001290D02*
X203879050Y-112032280D01*
X202929830Y-113660910D02*
X202852640Y-113624450D01*
X200168820Y-112663780D02*
X200040940Y-112542470D01*
X203065960Y-113666440D02*
X203013390Y-113673110D01*
X198869010Y-112606650D02*
X198956690Y-112623360D01*
X203948390Y-111716900D02*
X203855290Y-111690150D01*
X198780320Y-112386600D02*
X198640010Y-112413290D01*
X205346290Y-112716680D02*
X205580710Y-114386927D01*
X201688940Y-113615660D02*
X201640010Y-113650710D01*
X202593620Y-112988390D02*
X202611580Y-112824860D01*
X201220250Y-113701810D02*
X201415030Y-113849493D01*
X202852640Y-113624450D02*
X202781660Y-113563580D01*
X203540290Y-113078220D02*
X203502480Y-112911610D01*
X204635570Y-114429028D02*
X204598180Y-114355515D01*
X203912900Y-112132580D02*
X203927290Y-112201930D01*
X202781660Y-113563580D02*
X202716940Y-113478450D01*
X204872480Y-114471237D02*
X204771360Y-114480026D01*
X197637895Y-111867460D02*
X198057871Y-111867460D01*
X198721070Y-112727100D02*
X198750690Y-112660210D01*
X201436120Y-112658570D02*
X201550000Y-112723400D01*
X199365710Y-112572750D02*
X199326430Y-112717550D01*
X203995480Y-112589720D02*
X203995480Y-112589720D01*
X200968460Y-113870597D02*
X201244010Y-113870597D01*
X198530260Y-112493430D02*
X198459400Y-112621790D01*
X197338470Y-111653040D02*
X197751935Y-114587230D01*
X198956690Y-112623360D02*
X199007300Y-112645230D01*
X205321710Y-114530807D02*
X205779500Y-114530807D01*
X201525650Y-113678760D02*
X201474540Y-113672520D01*
X203516370Y-113532870D02*
X203543710Y-113405100D01*
X199692210Y-112620330D02*
X199768110Y-112606650D01*
X200132640Y-112409160D02*
X200168820Y-112663780D01*
X201064710Y-112609860D02*
X201150210Y-112606650D01*
X198445240Y-112925440D02*
X198579950Y-113870597D01*
X199223660Y-112815580D02*
X199268210Y-112861050D01*
X198579950Y-113870597D02*
X198855610Y-113870597D01*
X203083100Y-112706690D02*
X203147660Y-112797790D01*
X200040940Y-112542470D02*
X199913290Y-112455890D01*
X203879050Y-112032280D02*
X203896850Y-112076050D01*
X203718360Y-111952080D02*
X203803860Y-111964350D01*
X203418760Y-111746620D02*
X203472910Y-111991750D01*
X203620430Y-111961960D02*
X203718360Y-111952080D01*
X198640010Y-112413290D02*
X198530260Y-112493430D01*
X198855610Y-113870597D02*
X198719110Y-112912750D01*
X202060970Y-113544100D02*
X202096120Y-113322690D01*
X204882150Y-114718362D02*
X205066390Y-114688902D01*
X201185210Y-113454960D02*
X201064710Y-112609860D01*
X201614510Y-113898808D02*
X201710870Y-113888229D01*
X201254970Y-113534500D02*
X201217260Y-113498800D01*
X198919250Y-112407280D02*
X198780320Y-112386600D01*
X202863370Y-113894089D02*
X203003680Y-113910093D01*
X201793550Y-113438360D02*
X201732460Y-113566610D01*
X202734620Y-113846183D02*
X202863370Y-113894089D01*
X203470730Y-113643820D02*
X203516370Y-113532870D01*
X199594650Y-112825460D02*
X199605460Y-112729750D01*
X204712870Y-114728290D02*
X204882150Y-114718362D01*
X199329620Y-112943940D02*
X199460220Y-113870597D01*
X201881440Y-113803919D02*
X201955550Y-113730243D01*
X199605720Y-112947470D02*
X199594650Y-112825460D01*
X201415030Y-113849493D02*
X201614510Y-113898808D01*
X204567860Y-112369680D02*
X204245590Y-112369680D01*
X203956800Y-112369680D02*
X203633180Y-112369680D01*
X201814000Y-113277930D02*
X201793550Y-113438360D01*
X205504370Y-112572800D02*
X205045940Y-112572800D01*
X199638000Y-112661350D02*
X199692210Y-112620330D01*
X199735870Y-113870597D02*
X199605720Y-112947470D01*
X202079790Y-113124400D02*
X202030860Y-112944330D01*
X203633180Y-112369680D02*
X203671040Y-112589720D01*
X201771640Y-113034010D02*
X201814000Y-113277930D01*
X201221180Y-113708700D02*
X201220250Y-113701810D01*
X203803860Y-111964350D02*
X203859580Y-112001290D01*
X202632850Y-112412800D02*
X202540290Y-112466790D01*
X204095300Y-111823890D02*
X204028410Y-111761500D01*
X200132640Y-112409160D02*
X200132640Y-112409160D01*
X203855290Y-111690150D02*
X203749070Y-111681250D01*
X205045940Y-112572800D02*
X205045940Y-112572800D01*
X202424140Y-113518060D02*
X202511710Y-113654560D01*
X202617390Y-113766322D02*
X202734620Y-113846183D01*
X198435750Y-112793010D02*
X198445240Y-112925440D01*
X198027598Y-111653040D02*
X197338470Y-111653040D01*
X202716940Y-113478450D02*
X202663010Y-113374770D01*
X200208800Y-112944870D02*
X200340480Y-113870597D01*
X203233110Y-113867071D02*
X203326970Y-113813359D01*
X199605460Y-112729750D02*
X199638000Y-112661350D01*
X201194000Y-113472270D02*
X201185210Y-113454960D01*
X199460220Y-113870597D02*
X199735870Y-113870597D01*
X200196480Y-112921050D02*
X200208800Y-112944870D01*
X201799900Y-113856600D02*
X201881440Y-113803919D01*
X204602790Y-112589720D02*
X204567860Y-112369680D01*
X202030860Y-112944330D02*
X201949300Y-112782480D01*
X198711190Y-112820850D02*
X198721070Y-112727100D01*
X202737550Y-112380470D02*
X202632850Y-112412800D01*
X203240050Y-113024850D02*
X203270760Y-113289910D01*
X203927290Y-112201930D02*
X203956800Y-112369680D01*
X203244720Y-112513330D02*
X203126340Y-112433470D01*
X203012730Y-112641650D02*
X203083100Y-112706690D01*
X199063570Y-112677890D02*
X199133010Y-112731390D01*
X203125360Y-113899297D02*
X203233110Y-113867071D01*
X202395050Y-112635730D02*
X202348610Y-112743540D01*
X199007300Y-112645230D02*
X199063570Y-112677890D01*
X202096120Y-113322690D02*
X202079790Y-113124400D01*
X199192320Y-112572750D02*
X199056620Y-112469330D01*
X203147660Y-112797790D02*
X203240050Y-113024850D01*
X202601330Y-113129710D02*
X202593620Y-112988390D01*
X199133010Y-112731390D02*
X199223660Y-112815580D01*
X198750690Y-112660210D02*
X198800000Y-112620000D01*
X198459400Y-112621790D02*
X198435750Y-112793010D01*
X204690680Y-114467222D02*
X204635570Y-114429028D01*
X205779500Y-114530807D02*
X205504370Y-112572800D01*
X202361580Y-113363760D02*
X202424140Y-113518060D01*
X201421100Y-113653960D02*
X201365280Y-113622930D01*
X205066390Y-114688902D02*
X205010890Y-114445087D01*
X202665230Y-112698120D02*
X202703930Y-112650650D01*
X204771360Y-114480026D02*
X204690680Y-114467222D01*
X201955550Y-113730243D02*
X202060970Y-113544100D01*
X203670390Y-111689220D02*
X203561780Y-111713150D01*
X201185210Y-113454960D02*
X201185210Y-113454960D01*
X203114080Y-113646420D02*
X203065960Y-113666440D01*
X201365280Y-113622930D02*
X201307110Y-113579420D01*
X200924900Y-112380790D02*
X200761910Y-112414280D01*
X201217260Y-113498800D02*
X201194000Y-113472270D01*
X200616140Y-113870597D02*
X200408190Y-112409160D01*
X202663010Y-113374770D02*
X202624440Y-113258510D01*
X199785790Y-112403920D02*
X199658620Y-112386600D01*
X201710870Y-113888229D02*
X201799900Y-113856600D01*
X202511710Y-113654560D02*
X202617390Y-113766322D01*
X204569860Y-114236808D02*
X204283830Y-112589720D01*
X200340480Y-113870597D02*
X200616140Y-113870597D01*
X201327290Y-112386500D02*
X201106210Y-112369680D01*
X201307110Y-113579420D02*
X201254970Y-113534500D01*
X205045940Y-112572800D02*
X205064980Y-112716680D01*
X201585540Y-113671700D02*
X201525650Y-113678760D01*
X198057871Y-111867460D02*
X198027598Y-111653040D01*
X199326430Y-112717550D02*
X199192320Y-112572750D01*
X203003680Y-113910093D02*
X203125360Y-113899297D01*
X204352680Y-114507207D02*
X204433530Y-114633564D01*
X203439540Y-112760570D02*
X203351390Y-112625100D01*
X203543710Y-113405100D02*
X203552890Y-113260510D01*
X203552890Y-113260510D02*
X203540290Y-113078220D01*
X204207980Y-112155480D02*
X204161550Y-111957620D01*
X198407540Y-114367179D02*
X197990163Y-114367179D01*
X204028410Y-111761500D02*
X203948390Y-111716900D01*
X199268210Y-112861050D02*
X199300710Y-112897550D01*
X201644510Y-112814180D02*
X201771640Y-113034010D01*
X199768110Y-112606650D02*
X199891260Y-112644850D01*
X202348610Y-112743540D02*
X202320790Y-112865550D01*
X203157690Y-113613110D02*
X203114080Y-113646420D01*
X205010890Y-114445087D02*
X204872480Y-114471237D01*
X204245590Y-112369680D02*
X204207980Y-112155480D01*
X198800000Y-112620000D02*
X198869010Y-112606650D01*
M02*
