G04 #@! TF.FileFunction,Copper,L2,Bot,Signal*
%FSLAX46Y46*%
G04 Gerber Fmt 4.6, Leading zero omitted, Abs format (unit mm)*
G04 Created by KiCad (PCBNEW 4.0.7-e2-6376~58~ubuntu14.04.1) date Sat Apr 21 16:58:32 2018*
%MOMM*%
%LPD*%
G01*
G04 APERTURE LIST*
%ADD10C,0.100000*%
%ADD11C,1.700000*%
%ADD12R,1.700000X1.700000*%
%ADD13O,1.700000X1.700000*%
%ADD14C,1.400000*%
%ADD15O,1.400000X1.400000*%
%ADD16C,1.500000*%
%ADD17R,1.600000X1.600000*%
%ADD18O,1.600000X1.600000*%
%ADD19C,1.600000*%
%ADD20C,0.600000*%
%ADD21C,0.250000*%
%ADD22C,0.254000*%
G04 APERTURE END LIST*
D10*
G36*
X168281122Y-104328878D02*
X167431122Y-105801122D01*
X165958878Y-104951122D01*
X166808878Y-103478878D01*
X168281122Y-104328878D01*
X168281122Y-104328878D01*
G37*
D11*
X168390000Y-102440295D02*
X168390000Y-102440295D01*
X169660000Y-100240591D02*
X169660000Y-100240591D01*
X170930000Y-98040886D02*
X170930000Y-98040886D01*
X172200000Y-95841182D02*
X172200000Y-95841182D01*
X173470000Y-93641477D02*
X173470000Y-93641477D01*
D12*
X183980000Y-122760000D03*
D13*
X183980000Y-125300000D03*
X181440000Y-122760000D03*
X181440000Y-125300000D03*
X178900000Y-122760000D03*
X178900000Y-125300000D03*
D12*
X196140000Y-125340000D03*
D13*
X193600000Y-125340000D03*
X191060000Y-125340000D03*
X188520000Y-125340000D03*
D14*
X184560000Y-119600000D03*
D15*
X176940000Y-119600000D03*
D10*
G36*
X204578878Y-92811417D02*
X203728878Y-91339173D01*
X205201122Y-90489173D01*
X206051122Y-91961417D01*
X204578878Y-92811417D01*
X204578878Y-92811417D01*
G37*
D11*
X206160000Y-93850000D02*
X206160000Y-93850000D01*
X207430000Y-96049704D02*
X207430000Y-96049704D01*
X208700000Y-98249409D02*
X208700000Y-98249409D01*
X209970000Y-100449113D02*
X209970000Y-100449113D01*
X211240000Y-102648818D02*
X211240000Y-102648818D01*
X212510000Y-104848522D02*
X212510000Y-104848522D01*
D16*
X193990000Y-121100000D03*
X197790000Y-121100000D03*
D17*
X206270000Y-109390000D03*
D18*
X173250000Y-117010000D03*
X203730000Y-109390000D03*
X175790000Y-117010000D03*
X201190000Y-109390000D03*
X178330000Y-117010000D03*
X198650000Y-109390000D03*
X180870000Y-117010000D03*
X196110000Y-109390000D03*
X183410000Y-117010000D03*
X193570000Y-109390000D03*
X185950000Y-117010000D03*
X191030000Y-109390000D03*
X188490000Y-117010000D03*
X188490000Y-109390000D03*
X191030000Y-117010000D03*
X185950000Y-109390000D03*
X193570000Y-117010000D03*
X183410000Y-109390000D03*
X196110000Y-117010000D03*
X180870000Y-109390000D03*
X198650000Y-117010000D03*
X178330000Y-109390000D03*
X201190000Y-117010000D03*
X175790000Y-109390000D03*
X203730000Y-117010000D03*
X173250000Y-109390000D03*
X206270000Y-117010000D03*
D19*
X199270000Y-125340000D03*
X201770000Y-125340000D03*
X203840000Y-120000000D03*
X202590000Y-122165064D03*
X187090000Y-121380000D03*
X189590000Y-121380000D03*
D12*
X205740000Y-106680000D03*
D13*
X205740000Y-104140000D03*
X205740000Y-101600000D03*
X205740000Y-99060000D03*
D12*
X175260000Y-106680000D03*
D13*
X175260000Y-104140000D03*
X175260000Y-101600000D03*
X175260000Y-99060000D03*
D12*
X177750000Y-99060000D03*
D13*
X177750000Y-101600000D03*
X177750000Y-104140000D03*
X177750000Y-106680000D03*
D12*
X177800000Y-88900000D03*
D13*
X177800000Y-91440000D03*
X177800000Y-93980000D03*
X177800000Y-96520000D03*
D12*
X180340000Y-99060000D03*
D13*
X180340000Y-101600000D03*
X180340000Y-104140000D03*
X180340000Y-106680000D03*
D12*
X180340000Y-88900000D03*
D13*
X180340000Y-91440000D03*
X180340000Y-93980000D03*
X180340000Y-96520000D03*
D12*
X182880000Y-88900000D03*
D13*
X182880000Y-91440000D03*
X182880000Y-93980000D03*
X182880000Y-96520000D03*
D12*
X182880000Y-99060000D03*
D13*
X182880000Y-101600000D03*
X182880000Y-104140000D03*
X182880000Y-106680000D03*
D12*
X185420000Y-88900000D03*
D13*
X185420000Y-91440000D03*
X185420000Y-93980000D03*
X185420000Y-96520000D03*
D12*
X185420000Y-99060000D03*
D13*
X185420000Y-101600000D03*
X185420000Y-104140000D03*
X185420000Y-106680000D03*
D12*
X187960000Y-88900000D03*
D13*
X187960000Y-91440000D03*
X187960000Y-93980000D03*
X187960000Y-96520000D03*
D12*
X187960000Y-99060000D03*
D13*
X187960000Y-101600000D03*
X187960000Y-104140000D03*
X187960000Y-106680000D03*
D12*
X190500000Y-88900000D03*
D13*
X190500000Y-91440000D03*
X190500000Y-93980000D03*
X190500000Y-96520000D03*
D12*
X190500000Y-99060000D03*
D13*
X190500000Y-101600000D03*
X190500000Y-104140000D03*
X190500000Y-106680000D03*
D12*
X193040000Y-99060000D03*
D13*
X193040000Y-101600000D03*
X193040000Y-104140000D03*
X193040000Y-106680000D03*
D12*
X193040000Y-88900000D03*
D13*
X193040000Y-91440000D03*
X193040000Y-93980000D03*
X193040000Y-96520000D03*
D12*
X195580000Y-99060000D03*
D13*
X195580000Y-101600000D03*
X195580000Y-104140000D03*
X195580000Y-106680000D03*
D12*
X195580000Y-88900000D03*
D13*
X195580000Y-91440000D03*
X195580000Y-93980000D03*
X195580000Y-96520000D03*
D12*
X198120000Y-88900000D03*
D13*
X198120000Y-91440000D03*
X198120000Y-93980000D03*
X198120000Y-96520000D03*
D12*
X198120000Y-99060000D03*
D13*
X198120000Y-101600000D03*
X198120000Y-104140000D03*
X198120000Y-106680000D03*
D12*
X200660000Y-88900000D03*
D13*
X200660000Y-91440000D03*
X200660000Y-93980000D03*
X200660000Y-96520000D03*
D12*
X200660000Y-99060000D03*
D13*
X200660000Y-101600000D03*
X200660000Y-104140000D03*
X200660000Y-106680000D03*
D12*
X203200000Y-99060000D03*
D13*
X203200000Y-101600000D03*
X203200000Y-104140000D03*
X203200000Y-106680000D03*
D12*
X196490000Y-85010000D03*
D13*
X193950000Y-85010000D03*
X191410000Y-85010000D03*
X188870000Y-85010000D03*
X186330000Y-85010000D03*
X183790000Y-85010000D03*
X181250000Y-85010000D03*
X178710000Y-85010000D03*
D20*
X208280000Y-111760000D03*
X210820000Y-106680000D03*
X193040000Y-111760000D03*
D21*
X199270000Y-125340000D02*
X195030000Y-121100000D01*
X195030000Y-121100000D02*
X193990000Y-121100000D01*
X178900000Y-125300000D02*
X180048812Y-126448812D01*
X180048812Y-126448812D02*
X180849810Y-126448812D01*
X180849810Y-126448812D02*
X180875999Y-126475001D01*
X180875999Y-126475001D02*
X182004001Y-126475001D01*
X187670001Y-126189999D02*
X188520000Y-125340000D01*
X182004001Y-126475001D02*
X182030190Y-126448812D01*
X182030190Y-126448812D02*
X183389810Y-126448812D01*
X183389810Y-126448812D02*
X183415999Y-126475001D01*
X183415999Y-126475001D02*
X184544001Y-126475001D01*
X184544001Y-126475001D02*
X184715251Y-126303751D01*
X184715251Y-126303751D02*
X187556249Y-126303751D01*
X187556249Y-126303751D02*
X187670001Y-126189999D01*
X175249999Y-110515001D02*
X187364999Y-110515001D01*
X175260000Y-106680000D02*
X175260000Y-108254998D01*
X187364999Y-110515001D02*
X188490000Y-109390000D01*
X174664999Y-109930001D02*
X175249999Y-110515001D01*
X175260000Y-108254998D02*
X174664999Y-108849999D01*
X174664999Y-108849999D02*
X174664999Y-109930001D01*
X175260000Y-101600000D02*
X175260000Y-99060000D01*
X175260000Y-104140000D02*
X175260000Y-101600000D01*
X175260000Y-106680000D02*
X175260000Y-105580000D01*
X175260000Y-105580000D02*
X175260000Y-104140000D01*
X188520000Y-125340000D02*
X188520000Y-122450000D01*
X188520000Y-122450000D02*
X189590000Y-121380000D01*
X189590000Y-121380000D02*
X189590000Y-118450000D01*
X189590000Y-118450000D02*
X191030000Y-117010000D01*
X201770000Y-125340000D02*
X201770000Y-122985064D01*
X201770000Y-122985064D02*
X202590000Y-122165064D01*
X197790000Y-121100000D02*
X198890000Y-120000000D01*
X198890000Y-120000000D02*
X203840000Y-120000000D01*
X183980000Y-122760000D02*
X183980000Y-121660000D01*
X183980000Y-121660000D02*
X180870000Y-118550000D01*
X180870000Y-118550000D02*
X180870000Y-118141370D01*
X180870000Y-118141370D02*
X180870000Y-117010000D01*
X206270000Y-110440000D02*
X206270000Y-109390000D01*
X201227232Y-126462234D02*
X201229999Y-126465001D01*
X205112422Y-111597578D02*
X206270000Y-110440000D01*
X202310001Y-126465001D02*
X202895001Y-125880001D01*
X202233508Y-124138506D02*
X205112422Y-121259592D01*
X202895001Y-125880001D02*
X202895001Y-124799999D01*
X205112422Y-121259592D02*
X205112422Y-111597578D01*
X187561323Y-126935088D02*
X187571400Y-126925011D01*
X187571400Y-126925011D02*
X200764455Y-126925011D01*
X177724999Y-123935001D02*
X177724999Y-125864001D01*
X201229999Y-126465001D02*
X202310001Y-126465001D01*
X178900000Y-122760000D02*
X177724999Y-123935001D01*
X177724999Y-125864001D02*
X178796086Y-126935088D01*
X202895001Y-124799999D02*
X202233508Y-124138506D01*
X178796086Y-126935088D02*
X187561323Y-126935088D01*
X200764455Y-126925011D02*
X201227232Y-126462234D01*
X178900000Y-122760000D02*
X176940000Y-120800000D01*
X176940000Y-120800000D02*
X176940000Y-119600000D01*
X212510000Y-104848522D02*
X211303523Y-106054999D01*
X211303523Y-106054999D02*
X208555001Y-106054999D01*
X208555001Y-106054999D02*
X206270000Y-108340000D01*
X206270000Y-108340000D02*
X206270000Y-109390000D01*
X210820000Y-106680000D02*
X208280000Y-109220000D01*
X208280000Y-109220000D02*
X208280000Y-111760000D01*
X167170000Y-104658818D02*
X168518818Y-104658818D01*
X168518818Y-104658818D02*
X173250000Y-109390000D01*
X193040000Y-111760000D02*
X193570000Y-112290000D01*
X193570000Y-112290000D02*
X193570000Y-117010000D01*
X196480000Y-85000000D02*
X196480000Y-86100000D01*
X202024999Y-87979997D02*
X202024999Y-107684999D01*
X202024999Y-107684999D02*
X202930001Y-108590001D01*
X196480000Y-86100000D02*
X197189990Y-86809990D01*
X197189990Y-86809990D02*
X200854992Y-86809990D01*
X200854992Y-86809990D02*
X202024999Y-87979997D01*
X202930001Y-108590001D02*
X203730000Y-109390000D01*
X193940000Y-85000000D02*
X196200000Y-87260000D01*
X196200000Y-87260000D02*
X198765002Y-87260000D01*
X198765002Y-87260000D02*
X199295001Y-87789999D01*
X199295001Y-87789999D02*
X199295001Y-107495001D01*
X199295001Y-107495001D02*
X200390001Y-108590001D01*
X200390001Y-108590001D02*
X201190000Y-109390000D01*
X191400000Y-85000000D02*
X191400000Y-86202081D01*
X196755001Y-107495001D02*
X197850001Y-108590001D01*
X191400000Y-86202081D02*
X191675001Y-86477082D01*
X191675001Y-86477082D02*
X191675001Y-87724999D01*
X191675001Y-87724999D02*
X196690001Y-87724999D01*
X196690001Y-87724999D02*
X196755001Y-87789999D01*
X196755001Y-87789999D02*
X196755001Y-107495001D01*
X197850001Y-108590001D02*
X198650000Y-109390000D01*
X188860000Y-85000000D02*
X188860000Y-86202081D01*
X188860000Y-86202081D02*
X189135001Y-86477082D01*
X189135001Y-86477082D02*
X189135001Y-97884999D01*
X189135001Y-97884999D02*
X194150001Y-97884999D01*
X194150001Y-97884999D02*
X194215001Y-97949999D01*
X194215001Y-97949999D02*
X194215001Y-107495001D01*
X194215001Y-107495001D02*
X195310001Y-108590001D01*
X195310001Y-108590001D02*
X196110000Y-109390000D01*
X186320000Y-85000000D02*
X186320000Y-86202081D01*
X186320000Y-86202081D02*
X186595001Y-86477082D01*
X186595001Y-86477082D02*
X186595001Y-107054003D01*
X192770001Y-108590001D02*
X193570000Y-109390000D01*
X186595001Y-107054003D02*
X187395999Y-107855001D01*
X187395999Y-107855001D02*
X192035001Y-107855001D01*
X192035001Y-107855001D02*
X192770001Y-108590001D01*
X183780000Y-85000000D02*
X183780000Y-86202081D01*
X183780000Y-86202081D02*
X184055001Y-86477082D01*
X181995001Y-108264999D02*
X181669999Y-108590001D01*
X184055001Y-86477082D02*
X184055001Y-107244001D01*
X184055001Y-107244001D02*
X183034003Y-108264999D01*
X183034003Y-108264999D02*
X181995001Y-108264999D01*
X181669999Y-108590001D02*
X180870000Y-109390000D01*
X181240000Y-85000000D02*
X181240000Y-86202081D01*
X180494003Y-108264999D02*
X179455001Y-108264999D01*
X181240000Y-86202081D02*
X181704999Y-86667080D01*
X181704999Y-86667080D02*
X181704999Y-107054003D01*
X181704999Y-107054003D02*
X180494003Y-108264999D01*
X179455001Y-108264999D02*
X179129999Y-108590001D01*
X179129999Y-108590001D02*
X178330000Y-109390000D01*
X178700000Y-85000000D02*
X178700000Y-86202081D01*
X178975001Y-86477082D02*
X178975001Y-100120001D01*
X178700000Y-86202081D02*
X178975001Y-86477082D01*
X178975001Y-100120001D02*
X178925001Y-100170001D01*
X178925001Y-100170001D02*
X178925001Y-107244001D01*
X178925001Y-107244001D02*
X178314001Y-107855001D01*
X178314001Y-107855001D02*
X177324999Y-107855001D01*
X177324999Y-107855001D02*
X176589999Y-108590001D01*
X176589999Y-108590001D02*
X175790000Y-109390000D01*
X180340000Y-101600000D02*
X180340000Y-99060000D01*
X180340000Y-104140000D02*
X180340000Y-102937919D01*
X180340000Y-102937919D02*
X180340000Y-101600000D01*
X180340000Y-106680000D02*
X180340000Y-105477919D01*
X180340000Y-105477919D02*
X180340000Y-104140000D01*
X183980000Y-125300000D02*
X187090000Y-122190000D01*
X187090000Y-122190000D02*
X187090000Y-121380000D01*
X205740000Y-101600000D02*
X205740000Y-99060000D01*
X205740000Y-104140000D02*
X205740000Y-101600000D01*
X205740000Y-106680000D02*
X205740000Y-104140000D01*
X205740000Y-106680000D02*
X205740000Y-107780000D01*
X205740000Y-107780000D02*
X204855001Y-108664999D01*
X204855001Y-108664999D02*
X204855001Y-109930001D01*
X204855001Y-109930001D02*
X204270001Y-110515001D01*
X204270001Y-110515001D02*
X192155001Y-110515001D01*
X192155001Y-110515001D02*
X191829999Y-110189999D01*
X191829999Y-110189999D02*
X191030000Y-109390000D01*
X185950000Y-117010000D02*
X191030000Y-111930000D01*
X191030000Y-111930000D02*
X191030000Y-109390000D01*
X184560000Y-119600000D02*
X185950000Y-118210000D01*
X185950000Y-118210000D02*
X185950000Y-117010000D01*
X187090000Y-121380000D02*
X185310000Y-119600000D01*
X185310000Y-119600000D02*
X184560000Y-119600000D01*
X177750000Y-104140000D02*
X177750000Y-101600000D01*
X177800000Y-101600000D02*
X177800000Y-100397919D01*
X177800000Y-100397919D02*
X177800000Y-99060000D01*
X177800000Y-106680000D02*
X177800000Y-104140000D01*
X177800000Y-91440000D02*
X177800000Y-88900000D01*
X177800000Y-93980000D02*
X177800000Y-91440000D01*
X177800000Y-96520000D02*
X177800000Y-93980000D01*
X180340000Y-91440000D02*
X180340000Y-88900000D01*
X180340000Y-93980000D02*
X180340000Y-91440000D01*
X180340000Y-96520000D02*
X180340000Y-93980000D01*
X182880000Y-91440000D02*
X182880000Y-88900000D01*
X182880000Y-93980000D02*
X182880000Y-91440000D01*
X182880000Y-96520000D02*
X182880000Y-93980000D01*
X182880000Y-101600000D02*
X182880000Y-100397919D01*
X182880000Y-100397919D02*
X182880000Y-99060000D01*
X182880000Y-104140000D02*
X182880000Y-102937919D01*
X182880000Y-102937919D02*
X182880000Y-101600000D01*
X182880000Y-106680000D02*
X182880000Y-105477919D01*
X182880000Y-105477919D02*
X182880000Y-104140000D01*
X185420000Y-91440000D02*
X185420000Y-88900000D01*
X185420000Y-93980000D02*
X185420000Y-91440000D01*
X185420000Y-96520000D02*
X185420000Y-93980000D01*
X185420000Y-101600000D02*
X185420000Y-100397919D01*
X185420000Y-100397919D02*
X185420000Y-99060000D01*
X185420000Y-104140000D02*
X185420000Y-101600000D01*
X185420000Y-106680000D02*
X185420000Y-105477919D01*
X185420000Y-105477919D02*
X185420000Y-104140000D01*
X187960000Y-91440000D02*
X187960000Y-88900000D01*
X187960000Y-93980000D02*
X187960000Y-91440000D01*
X187960000Y-96520000D02*
X187960000Y-93980000D01*
X187960000Y-101600000D02*
X187960000Y-99060000D01*
X187960000Y-104140000D02*
X187960000Y-101600000D01*
X187960000Y-106680000D02*
X187960000Y-104140000D01*
X190500000Y-91440000D02*
X190500000Y-88900000D01*
X190500000Y-93980000D02*
X190500000Y-91440000D01*
X190500000Y-96520000D02*
X190500000Y-93980000D01*
X190500000Y-101600000D02*
X190500000Y-99060000D01*
X190500000Y-104140000D02*
X190500000Y-101600000D01*
X190500000Y-106680000D02*
X190500000Y-104140000D01*
X193040000Y-101600000D02*
X193040000Y-99060000D01*
X193040000Y-104140000D02*
X193040000Y-101600000D01*
X193040000Y-106680000D02*
X193040000Y-104140000D01*
X193040000Y-91440000D02*
X193040000Y-88900000D01*
X193040000Y-93980000D02*
X193040000Y-91440000D01*
X193040000Y-96520000D02*
X193040000Y-93980000D01*
X195580000Y-101600000D02*
X195580000Y-99060000D01*
X195580000Y-104140000D02*
X195580000Y-101600000D01*
X195580000Y-106680000D02*
X195580000Y-104140000D01*
X195580000Y-91440000D02*
X195580000Y-88900000D01*
X195580000Y-93980000D02*
X195580000Y-91440000D01*
X195580000Y-96520000D02*
X195580000Y-93980000D01*
X198120000Y-91440000D02*
X198120000Y-88900000D01*
X198120000Y-93980000D02*
X198120000Y-91440000D01*
X198120000Y-96520000D02*
X198120000Y-93980000D01*
X198120000Y-101600000D02*
X198120000Y-99060000D01*
X198120000Y-104140000D02*
X198120000Y-101600000D01*
X198120000Y-106680000D02*
X198120000Y-104140000D01*
X200660000Y-91440000D02*
X200660000Y-88900000D01*
X200660000Y-93980000D02*
X200660000Y-91440000D01*
X200660000Y-96520000D02*
X200660000Y-93980000D01*
X200660000Y-101600000D02*
X200660000Y-99060000D01*
X200660000Y-104140000D02*
X200660000Y-101600000D01*
X200660000Y-106680000D02*
X200660000Y-104140000D01*
X203200000Y-101600000D02*
X203200000Y-99060000D01*
X203200000Y-104140000D02*
X203200000Y-101600000D01*
X203200000Y-106680000D02*
X203200000Y-104140000D01*
X181440000Y-125300000D02*
X181440000Y-124499002D01*
X181440000Y-124499002D02*
X180075001Y-123134003D01*
X180075001Y-123134003D02*
X180075001Y-118755001D01*
X180075001Y-118755001D02*
X179129999Y-117809999D01*
X179129999Y-117809999D02*
X178330000Y-117010000D01*
X181440000Y-125300000D02*
X182240998Y-125300000D01*
D22*
G36*
X191864161Y-111217149D02*
X192155001Y-111275001D01*
X192228986Y-111275001D01*
X192105162Y-111573201D01*
X192104838Y-111945167D01*
X192246883Y-112288943D01*
X192509673Y-112552192D01*
X192810000Y-112676899D01*
X192810000Y-115797005D01*
X192555302Y-115967189D01*
X192285014Y-116371703D01*
X192182389Y-116154866D01*
X191767423Y-115778959D01*
X191379039Y-115618096D01*
X191157000Y-115740085D01*
X191157000Y-116883000D01*
X191177000Y-116883000D01*
X191177000Y-117137000D01*
X191157000Y-117137000D01*
X191157000Y-118279915D01*
X191379039Y-118401904D01*
X191767423Y-118241041D01*
X192182389Y-117865134D01*
X192285014Y-117648297D01*
X192555302Y-118052811D01*
X193020849Y-118363880D01*
X193570000Y-118473113D01*
X194119151Y-118363880D01*
X194584698Y-118052811D01*
X194840000Y-117670725D01*
X195095302Y-118052811D01*
X195560849Y-118363880D01*
X196110000Y-118473113D01*
X196659151Y-118363880D01*
X197124698Y-118052811D01*
X197380000Y-117670725D01*
X197635302Y-118052811D01*
X198100849Y-118363880D01*
X198650000Y-118473113D01*
X199199151Y-118363880D01*
X199664698Y-118052811D01*
X199920000Y-117670725D01*
X200175302Y-118052811D01*
X200640849Y-118363880D01*
X201190000Y-118473113D01*
X201739151Y-118363880D01*
X202204698Y-118052811D01*
X202460000Y-117670725D01*
X202715302Y-118052811D01*
X203180849Y-118363880D01*
X203730000Y-118473113D01*
X204279151Y-118363880D01*
X204352422Y-118314922D01*
X204352422Y-118658982D01*
X204126691Y-118565250D01*
X203555813Y-118564752D01*
X203028200Y-118782757D01*
X202624176Y-119186077D01*
X202601785Y-119240000D01*
X198890000Y-119240000D01*
X198599161Y-119297852D01*
X198352599Y-119462599D01*
X198090200Y-119724998D01*
X198066702Y-119715241D01*
X197515715Y-119714760D01*
X197006485Y-119925169D01*
X196616539Y-120314436D01*
X196405241Y-120823298D01*
X196404760Y-121374285D01*
X196422837Y-121418035D01*
X195567401Y-120562599D01*
X195320839Y-120397852D01*
X195187491Y-120371327D01*
X195164831Y-120316485D01*
X194775564Y-119926539D01*
X194266702Y-119715241D01*
X193715715Y-119714760D01*
X193206485Y-119925169D01*
X192816539Y-120314436D01*
X192605241Y-120823298D01*
X192604760Y-121374285D01*
X192815169Y-121883515D01*
X193204436Y-122273461D01*
X193713298Y-122484759D01*
X194264285Y-122485240D01*
X194773515Y-122274831D01*
X194951927Y-122096729D01*
X196697757Y-123842560D01*
X195290000Y-123842560D01*
X195054683Y-123886838D01*
X194838559Y-124025910D01*
X194693569Y-124238110D01*
X194679914Y-124305541D01*
X194650054Y-124260853D01*
X194168285Y-123938946D01*
X193600000Y-123825907D01*
X193031715Y-123938946D01*
X192549946Y-124260853D01*
X192330000Y-124590026D01*
X192110054Y-124260853D01*
X191628285Y-123938946D01*
X191060000Y-123825907D01*
X190491715Y-123938946D01*
X190009946Y-124260853D01*
X189782298Y-124601553D01*
X189715183Y-124458642D01*
X189286924Y-124068355D01*
X188876890Y-123898524D01*
X188647000Y-124019845D01*
X188647000Y-125213000D01*
X188667000Y-125213000D01*
X188667000Y-125467000D01*
X188647000Y-125467000D01*
X188647000Y-125487000D01*
X188393000Y-125487000D01*
X188393000Y-125467000D01*
X187199181Y-125467000D01*
X187078514Y-125696892D01*
X187303087Y-126175088D01*
X185166402Y-126175088D01*
X185351961Y-125897378D01*
X185465000Y-125329093D01*
X185465000Y-125270907D01*
X185407754Y-124983108D01*
X187078514Y-124983108D01*
X187199181Y-125213000D01*
X188393000Y-125213000D01*
X188393000Y-124019845D01*
X188163110Y-123898524D01*
X187753076Y-124068355D01*
X187324817Y-124458642D01*
X187078514Y-124983108D01*
X185407754Y-124983108D01*
X185401771Y-124953031D01*
X187627401Y-122727401D01*
X187642888Y-122704223D01*
X187901800Y-122597243D01*
X188111663Y-122387745D01*
X188761861Y-122387745D01*
X188835995Y-122633864D01*
X189373223Y-122826965D01*
X189943454Y-122799778D01*
X190344005Y-122633864D01*
X190418139Y-122387745D01*
X189590000Y-121559605D01*
X188761861Y-122387745D01*
X188111663Y-122387745D01*
X188305824Y-122193923D01*
X188333423Y-122127456D01*
X188336136Y-122134005D01*
X188582255Y-122208139D01*
X189410395Y-121380000D01*
X189769605Y-121380000D01*
X190597745Y-122208139D01*
X190843864Y-122134005D01*
X191036965Y-121596777D01*
X191009778Y-121026546D01*
X190843864Y-120625995D01*
X190597745Y-120551861D01*
X189769605Y-121380000D01*
X189410395Y-121380000D01*
X188582255Y-120551861D01*
X188336136Y-120625995D01*
X188333804Y-120632483D01*
X188307243Y-120568200D01*
X188111640Y-120372255D01*
X188761861Y-120372255D01*
X189590000Y-121200395D01*
X190418139Y-120372255D01*
X190344005Y-120126136D01*
X189806777Y-119933035D01*
X189236546Y-119960222D01*
X188835995Y-120126136D01*
X188761861Y-120372255D01*
X188111640Y-120372255D01*
X187903923Y-120164176D01*
X187376691Y-119945250D01*
X186805813Y-119944752D01*
X186751851Y-119967049D01*
X186009802Y-119225000D01*
X186487401Y-118747401D01*
X186652148Y-118500839D01*
X186707019Y-118224987D01*
X186964698Y-118052811D01*
X187220000Y-117670725D01*
X187475302Y-118052811D01*
X187940849Y-118363880D01*
X188490000Y-118473113D01*
X189039151Y-118363880D01*
X189504698Y-118052811D01*
X189774986Y-117648297D01*
X189877611Y-117865134D01*
X190292577Y-118241041D01*
X190680961Y-118401904D01*
X190903000Y-118279915D01*
X190903000Y-117137000D01*
X190883000Y-117137000D01*
X190883000Y-116883000D01*
X190903000Y-116883000D01*
X190903000Y-115740085D01*
X190680961Y-115618096D01*
X190292577Y-115778959D01*
X189877611Y-116154866D01*
X189774986Y-116371703D01*
X189504698Y-115967189D01*
X189039151Y-115656120D01*
X188490000Y-115546887D01*
X188487397Y-115547405D01*
X191567401Y-112467401D01*
X191732148Y-112220839D01*
X191790000Y-111930000D01*
X191790000Y-111167596D01*
X191864161Y-111217149D01*
X191864161Y-111217149D01*
G37*
X191864161Y-111217149D02*
X192155001Y-111275001D01*
X192228986Y-111275001D01*
X192105162Y-111573201D01*
X192104838Y-111945167D01*
X192246883Y-112288943D01*
X192509673Y-112552192D01*
X192810000Y-112676899D01*
X192810000Y-115797005D01*
X192555302Y-115967189D01*
X192285014Y-116371703D01*
X192182389Y-116154866D01*
X191767423Y-115778959D01*
X191379039Y-115618096D01*
X191157000Y-115740085D01*
X191157000Y-116883000D01*
X191177000Y-116883000D01*
X191177000Y-117137000D01*
X191157000Y-117137000D01*
X191157000Y-118279915D01*
X191379039Y-118401904D01*
X191767423Y-118241041D01*
X192182389Y-117865134D01*
X192285014Y-117648297D01*
X192555302Y-118052811D01*
X193020849Y-118363880D01*
X193570000Y-118473113D01*
X194119151Y-118363880D01*
X194584698Y-118052811D01*
X194840000Y-117670725D01*
X195095302Y-118052811D01*
X195560849Y-118363880D01*
X196110000Y-118473113D01*
X196659151Y-118363880D01*
X197124698Y-118052811D01*
X197380000Y-117670725D01*
X197635302Y-118052811D01*
X198100849Y-118363880D01*
X198650000Y-118473113D01*
X199199151Y-118363880D01*
X199664698Y-118052811D01*
X199920000Y-117670725D01*
X200175302Y-118052811D01*
X200640849Y-118363880D01*
X201190000Y-118473113D01*
X201739151Y-118363880D01*
X202204698Y-118052811D01*
X202460000Y-117670725D01*
X202715302Y-118052811D01*
X203180849Y-118363880D01*
X203730000Y-118473113D01*
X204279151Y-118363880D01*
X204352422Y-118314922D01*
X204352422Y-118658982D01*
X204126691Y-118565250D01*
X203555813Y-118564752D01*
X203028200Y-118782757D01*
X202624176Y-119186077D01*
X202601785Y-119240000D01*
X198890000Y-119240000D01*
X198599161Y-119297852D01*
X198352599Y-119462599D01*
X198090200Y-119724998D01*
X198066702Y-119715241D01*
X197515715Y-119714760D01*
X197006485Y-119925169D01*
X196616539Y-120314436D01*
X196405241Y-120823298D01*
X196404760Y-121374285D01*
X196422837Y-121418035D01*
X195567401Y-120562599D01*
X195320839Y-120397852D01*
X195187491Y-120371327D01*
X195164831Y-120316485D01*
X194775564Y-119926539D01*
X194266702Y-119715241D01*
X193715715Y-119714760D01*
X193206485Y-119925169D01*
X192816539Y-120314436D01*
X192605241Y-120823298D01*
X192604760Y-121374285D01*
X192815169Y-121883515D01*
X193204436Y-122273461D01*
X193713298Y-122484759D01*
X194264285Y-122485240D01*
X194773515Y-122274831D01*
X194951927Y-122096729D01*
X196697757Y-123842560D01*
X195290000Y-123842560D01*
X195054683Y-123886838D01*
X194838559Y-124025910D01*
X194693569Y-124238110D01*
X194679914Y-124305541D01*
X194650054Y-124260853D01*
X194168285Y-123938946D01*
X193600000Y-123825907D01*
X193031715Y-123938946D01*
X192549946Y-124260853D01*
X192330000Y-124590026D01*
X192110054Y-124260853D01*
X191628285Y-123938946D01*
X191060000Y-123825907D01*
X190491715Y-123938946D01*
X190009946Y-124260853D01*
X189782298Y-124601553D01*
X189715183Y-124458642D01*
X189286924Y-124068355D01*
X188876890Y-123898524D01*
X188647000Y-124019845D01*
X188647000Y-125213000D01*
X188667000Y-125213000D01*
X188667000Y-125467000D01*
X188647000Y-125467000D01*
X188647000Y-125487000D01*
X188393000Y-125487000D01*
X188393000Y-125467000D01*
X187199181Y-125467000D01*
X187078514Y-125696892D01*
X187303087Y-126175088D01*
X185166402Y-126175088D01*
X185351961Y-125897378D01*
X185465000Y-125329093D01*
X185465000Y-125270907D01*
X185407754Y-124983108D01*
X187078514Y-124983108D01*
X187199181Y-125213000D01*
X188393000Y-125213000D01*
X188393000Y-124019845D01*
X188163110Y-123898524D01*
X187753076Y-124068355D01*
X187324817Y-124458642D01*
X187078514Y-124983108D01*
X185407754Y-124983108D01*
X185401771Y-124953031D01*
X187627401Y-122727401D01*
X187642888Y-122704223D01*
X187901800Y-122597243D01*
X188111663Y-122387745D01*
X188761861Y-122387745D01*
X188835995Y-122633864D01*
X189373223Y-122826965D01*
X189943454Y-122799778D01*
X190344005Y-122633864D01*
X190418139Y-122387745D01*
X189590000Y-121559605D01*
X188761861Y-122387745D01*
X188111663Y-122387745D01*
X188305824Y-122193923D01*
X188333423Y-122127456D01*
X188336136Y-122134005D01*
X188582255Y-122208139D01*
X189410395Y-121380000D01*
X189769605Y-121380000D01*
X190597745Y-122208139D01*
X190843864Y-122134005D01*
X191036965Y-121596777D01*
X191009778Y-121026546D01*
X190843864Y-120625995D01*
X190597745Y-120551861D01*
X189769605Y-121380000D01*
X189410395Y-121380000D01*
X188582255Y-120551861D01*
X188336136Y-120625995D01*
X188333804Y-120632483D01*
X188307243Y-120568200D01*
X188111640Y-120372255D01*
X188761861Y-120372255D01*
X189590000Y-121200395D01*
X190418139Y-120372255D01*
X190344005Y-120126136D01*
X189806777Y-119933035D01*
X189236546Y-119960222D01*
X188835995Y-120126136D01*
X188761861Y-120372255D01*
X188111640Y-120372255D01*
X187903923Y-120164176D01*
X187376691Y-119945250D01*
X186805813Y-119944752D01*
X186751851Y-119967049D01*
X186009802Y-119225000D01*
X186487401Y-118747401D01*
X186652148Y-118500839D01*
X186707019Y-118224987D01*
X186964698Y-118052811D01*
X187220000Y-117670725D01*
X187475302Y-118052811D01*
X187940849Y-118363880D01*
X188490000Y-118473113D01*
X189039151Y-118363880D01*
X189504698Y-118052811D01*
X189774986Y-117648297D01*
X189877611Y-117865134D01*
X190292577Y-118241041D01*
X190680961Y-118401904D01*
X190903000Y-118279915D01*
X190903000Y-117137000D01*
X190883000Y-117137000D01*
X190883000Y-116883000D01*
X190903000Y-116883000D01*
X190903000Y-115740085D01*
X190680961Y-115618096D01*
X190292577Y-115778959D01*
X189877611Y-116154866D01*
X189774986Y-116371703D01*
X189504698Y-115967189D01*
X189039151Y-115656120D01*
X188490000Y-115546887D01*
X188487397Y-115547405D01*
X191567401Y-112467401D01*
X191732148Y-112220839D01*
X191790000Y-111930000D01*
X191790000Y-111167596D01*
X191864161Y-111217149D01*
G36*
X202376682Y-120878262D02*
X202655740Y-121919716D01*
X202604141Y-121971315D01*
X202783749Y-122150923D01*
X203014955Y-121919717D01*
X203510194Y-121787018D01*
X203150983Y-122146229D01*
X202835348Y-122230804D01*
X202783749Y-122179205D01*
X202604141Y-122358813D01*
X202771270Y-122525942D01*
X202600874Y-122696338D01*
X202500197Y-122320607D01*
X201368938Y-122623727D01*
X201310080Y-122873940D01*
X201678783Y-123309784D01*
X201882444Y-123414768D01*
X201696107Y-123601105D01*
X201531360Y-123847667D01*
X201517889Y-123915390D01*
X201416546Y-123920222D01*
X201015995Y-124086136D01*
X200941861Y-124332255D01*
X201770000Y-125160395D01*
X201784142Y-125146252D01*
X201963748Y-125325858D01*
X201949605Y-125340000D01*
X201963748Y-125354143D01*
X201784143Y-125533748D01*
X201770000Y-125519605D01*
X201755858Y-125533748D01*
X201576253Y-125354143D01*
X201590395Y-125340000D01*
X200762255Y-124511861D01*
X200516136Y-124585995D01*
X200513804Y-124592483D01*
X200487243Y-124528200D01*
X200083923Y-124124176D01*
X199556691Y-123905250D01*
X198985813Y-123904752D01*
X198931851Y-123927048D01*
X197472706Y-122467904D01*
X197513298Y-122484759D01*
X198064285Y-122485240D01*
X198573515Y-122274831D01*
X198657373Y-122191119D01*
X201127119Y-122191119D01*
X201303198Y-122378382D01*
X202434457Y-122075261D01*
X202131337Y-120944002D01*
X201881124Y-120885144D01*
X201445280Y-121253847D01*
X201183710Y-121761275D01*
X201127119Y-122191119D01*
X198657373Y-122191119D01*
X198963461Y-121885564D01*
X199174759Y-121376702D01*
X199175240Y-120825715D01*
X199164670Y-120800132D01*
X199204802Y-120760000D01*
X202502456Y-120760000D01*
X202376682Y-120878262D01*
X202376682Y-120878262D01*
G37*
X202376682Y-120878262D02*
X202655740Y-121919716D01*
X202604141Y-121971315D01*
X202783749Y-122150923D01*
X203014955Y-121919717D01*
X203510194Y-121787018D01*
X203150983Y-122146229D01*
X202835348Y-122230804D01*
X202783749Y-122179205D01*
X202604141Y-122358813D01*
X202771270Y-122525942D01*
X202600874Y-122696338D01*
X202500197Y-122320607D01*
X201368938Y-122623727D01*
X201310080Y-122873940D01*
X201678783Y-123309784D01*
X201882444Y-123414768D01*
X201696107Y-123601105D01*
X201531360Y-123847667D01*
X201517889Y-123915390D01*
X201416546Y-123920222D01*
X201015995Y-124086136D01*
X200941861Y-124332255D01*
X201770000Y-125160395D01*
X201784142Y-125146252D01*
X201963748Y-125325858D01*
X201949605Y-125340000D01*
X201963748Y-125354143D01*
X201784143Y-125533748D01*
X201770000Y-125519605D01*
X201755858Y-125533748D01*
X201576253Y-125354143D01*
X201590395Y-125340000D01*
X200762255Y-124511861D01*
X200516136Y-124585995D01*
X200513804Y-124592483D01*
X200487243Y-124528200D01*
X200083923Y-124124176D01*
X199556691Y-123905250D01*
X198985813Y-123904752D01*
X198931851Y-123927048D01*
X197472706Y-122467904D01*
X197513298Y-122484759D01*
X198064285Y-122485240D01*
X198573515Y-122274831D01*
X198657373Y-122191119D01*
X201127119Y-122191119D01*
X201303198Y-122378382D01*
X202434457Y-122075261D01*
X202131337Y-120944002D01*
X201881124Y-120885144D01*
X201445280Y-121253847D01*
X201183710Y-121761275D01*
X201127119Y-122191119D01*
X198657373Y-122191119D01*
X198963461Y-121885564D01*
X199174759Y-121376702D01*
X199175240Y-120825715D01*
X199164670Y-120800132D01*
X199204802Y-120760000D01*
X202502456Y-120760000D01*
X202376682Y-120878262D01*
G36*
X179027000Y-125173000D02*
X179047000Y-125173000D01*
X179047000Y-125427000D01*
X179027000Y-125427000D01*
X179027000Y-125447000D01*
X178773000Y-125447000D01*
X178773000Y-125427000D01*
X178753000Y-125427000D01*
X178753000Y-125173000D01*
X178773000Y-125173000D01*
X178773000Y-125153000D01*
X179027000Y-125153000D01*
X179027000Y-125173000D01*
X179027000Y-125173000D01*
G37*
X179027000Y-125173000D02*
X179047000Y-125173000D01*
X179047000Y-125427000D01*
X179027000Y-125427000D01*
X179027000Y-125447000D01*
X178773000Y-125447000D01*
X178773000Y-125427000D01*
X178753000Y-125427000D01*
X178753000Y-125173000D01*
X178773000Y-125173000D01*
X178773000Y-125153000D01*
X179027000Y-125153000D01*
X179027000Y-125173000D01*
G36*
X165442519Y-105341701D02*
X165635158Y-105511822D01*
X167107402Y-106361822D01*
X167333331Y-106441134D01*
X167590037Y-106428756D01*
X167821701Y-106317481D01*
X167991822Y-106124842D01*
X168327913Y-105542715D01*
X171870096Y-109084898D01*
X171815000Y-109361887D01*
X171815000Y-109418113D01*
X171924233Y-109967264D01*
X172235302Y-110432811D01*
X172700849Y-110743880D01*
X173250000Y-110853113D01*
X173799151Y-110743880D01*
X174264698Y-110432811D01*
X174520000Y-110050725D01*
X174775302Y-110432811D01*
X175240849Y-110743880D01*
X175790000Y-110853113D01*
X176339151Y-110743880D01*
X176804698Y-110432811D01*
X177060000Y-110050725D01*
X177315302Y-110432811D01*
X177780849Y-110743880D01*
X178330000Y-110853113D01*
X178879151Y-110743880D01*
X179344698Y-110432811D01*
X179600000Y-110050725D01*
X179855302Y-110432811D01*
X180320849Y-110743880D01*
X180870000Y-110853113D01*
X181419151Y-110743880D01*
X181884698Y-110432811D01*
X182140000Y-110050725D01*
X182395302Y-110432811D01*
X182860849Y-110743880D01*
X183410000Y-110853113D01*
X183959151Y-110743880D01*
X184424698Y-110432811D01*
X184680000Y-110050725D01*
X184935302Y-110432811D01*
X185400849Y-110743880D01*
X185950000Y-110853113D01*
X186499151Y-110743880D01*
X186964698Y-110432811D01*
X187234986Y-110028297D01*
X187337611Y-110245134D01*
X187752577Y-110621041D01*
X188140961Y-110781904D01*
X188363000Y-110659915D01*
X188363000Y-109517000D01*
X188343000Y-109517000D01*
X188343000Y-109263000D01*
X188363000Y-109263000D01*
X188363000Y-109243000D01*
X188617000Y-109243000D01*
X188617000Y-109263000D01*
X188637000Y-109263000D01*
X188637000Y-109517000D01*
X188617000Y-109517000D01*
X188617000Y-110659915D01*
X188839039Y-110781904D01*
X189227423Y-110621041D01*
X189642389Y-110245134D01*
X189745014Y-110028297D01*
X190015302Y-110432811D01*
X190270000Y-110602995D01*
X190270000Y-111615198D01*
X186273886Y-115611312D01*
X185950000Y-115546887D01*
X185400849Y-115656120D01*
X184935302Y-115967189D01*
X184680000Y-116349275D01*
X184424698Y-115967189D01*
X183959151Y-115656120D01*
X183410000Y-115546887D01*
X182860849Y-115656120D01*
X182395302Y-115967189D01*
X182140000Y-116349275D01*
X181884698Y-115967189D01*
X181419151Y-115656120D01*
X180870000Y-115546887D01*
X180320849Y-115656120D01*
X179855302Y-115967189D01*
X179600000Y-116349275D01*
X179344698Y-115967189D01*
X178879151Y-115656120D01*
X178330000Y-115546887D01*
X177780849Y-115656120D01*
X177315302Y-115967189D01*
X177060000Y-116349275D01*
X176804698Y-115967189D01*
X176339151Y-115656120D01*
X175790000Y-115546887D01*
X175240849Y-115656120D01*
X174775302Y-115967189D01*
X174520000Y-116349275D01*
X174264698Y-115967189D01*
X173799151Y-115656120D01*
X173250000Y-115546887D01*
X172700849Y-115656120D01*
X172235302Y-115967189D01*
X171924233Y-116432736D01*
X171859717Y-116757078D01*
X165241577Y-105294125D01*
X165338790Y-105125747D01*
X165442519Y-105341701D01*
X165442519Y-105341701D01*
G37*
X165442519Y-105341701D02*
X165635158Y-105511822D01*
X167107402Y-106361822D01*
X167333331Y-106441134D01*
X167590037Y-106428756D01*
X167821701Y-106317481D01*
X167991822Y-106124842D01*
X168327913Y-105542715D01*
X171870096Y-109084898D01*
X171815000Y-109361887D01*
X171815000Y-109418113D01*
X171924233Y-109967264D01*
X172235302Y-110432811D01*
X172700849Y-110743880D01*
X173250000Y-110853113D01*
X173799151Y-110743880D01*
X174264698Y-110432811D01*
X174520000Y-110050725D01*
X174775302Y-110432811D01*
X175240849Y-110743880D01*
X175790000Y-110853113D01*
X176339151Y-110743880D01*
X176804698Y-110432811D01*
X177060000Y-110050725D01*
X177315302Y-110432811D01*
X177780849Y-110743880D01*
X178330000Y-110853113D01*
X178879151Y-110743880D01*
X179344698Y-110432811D01*
X179600000Y-110050725D01*
X179855302Y-110432811D01*
X180320849Y-110743880D01*
X180870000Y-110853113D01*
X181419151Y-110743880D01*
X181884698Y-110432811D01*
X182140000Y-110050725D01*
X182395302Y-110432811D01*
X182860849Y-110743880D01*
X183410000Y-110853113D01*
X183959151Y-110743880D01*
X184424698Y-110432811D01*
X184680000Y-110050725D01*
X184935302Y-110432811D01*
X185400849Y-110743880D01*
X185950000Y-110853113D01*
X186499151Y-110743880D01*
X186964698Y-110432811D01*
X187234986Y-110028297D01*
X187337611Y-110245134D01*
X187752577Y-110621041D01*
X188140961Y-110781904D01*
X188363000Y-110659915D01*
X188363000Y-109517000D01*
X188343000Y-109517000D01*
X188343000Y-109263000D01*
X188363000Y-109263000D01*
X188363000Y-109243000D01*
X188617000Y-109243000D01*
X188617000Y-109263000D01*
X188637000Y-109263000D01*
X188637000Y-109517000D01*
X188617000Y-109517000D01*
X188617000Y-110659915D01*
X188839039Y-110781904D01*
X189227423Y-110621041D01*
X189642389Y-110245134D01*
X189745014Y-110028297D01*
X190015302Y-110432811D01*
X190270000Y-110602995D01*
X190270000Y-111615198D01*
X186273886Y-115611312D01*
X185950000Y-115546887D01*
X185400849Y-115656120D01*
X184935302Y-115967189D01*
X184680000Y-116349275D01*
X184424698Y-115967189D01*
X183959151Y-115656120D01*
X183410000Y-115546887D01*
X182860849Y-115656120D01*
X182395302Y-115967189D01*
X182140000Y-116349275D01*
X181884698Y-115967189D01*
X181419151Y-115656120D01*
X180870000Y-115546887D01*
X180320849Y-115656120D01*
X179855302Y-115967189D01*
X179600000Y-116349275D01*
X179344698Y-115967189D01*
X178879151Y-115656120D01*
X178330000Y-115546887D01*
X177780849Y-115656120D01*
X177315302Y-115967189D01*
X177060000Y-116349275D01*
X176804698Y-115967189D01*
X176339151Y-115656120D01*
X175790000Y-115546887D01*
X175240849Y-115656120D01*
X174775302Y-115967189D01*
X174520000Y-116349275D01*
X174264698Y-115967189D01*
X173799151Y-115656120D01*
X173250000Y-115546887D01*
X172700849Y-115656120D01*
X172235302Y-115967189D01*
X171924233Y-116432736D01*
X171859717Y-116757078D01*
X165241577Y-105294125D01*
X165338790Y-105125747D01*
X165442519Y-105341701D01*
G36*
X177338039Y-84412622D02*
X177225000Y-84980907D01*
X177225000Y-85039093D01*
X177338039Y-85607378D01*
X177659946Y-86089147D01*
X177957020Y-86287645D01*
X177997852Y-86492920D01*
X178162599Y-86739482D01*
X178215001Y-86791884D01*
X178215001Y-87402560D01*
X176950000Y-87402560D01*
X176714683Y-87446838D01*
X176498559Y-87585910D01*
X176353569Y-87798110D01*
X176302560Y-88050000D01*
X176302560Y-89750000D01*
X176346838Y-89985317D01*
X176485910Y-90201441D01*
X176698110Y-90346431D01*
X176765541Y-90360086D01*
X176720853Y-90389946D01*
X176398946Y-90871715D01*
X176285907Y-91440000D01*
X176398946Y-92008285D01*
X176720853Y-92490054D01*
X177040000Y-92703301D01*
X177040000Y-92716699D01*
X176720853Y-92929946D01*
X176398946Y-93411715D01*
X176285907Y-93980000D01*
X176398946Y-94548285D01*
X176720853Y-95030054D01*
X177040000Y-95243301D01*
X177040000Y-95256699D01*
X176720853Y-95469946D01*
X176398946Y-95951715D01*
X176285907Y-96520000D01*
X176398946Y-97088285D01*
X176720853Y-97570054D01*
X176751466Y-97590509D01*
X176664683Y-97606838D01*
X176448559Y-97745910D01*
X176303569Y-97958110D01*
X176289535Y-98027411D01*
X176141358Y-97864817D01*
X175616892Y-97618514D01*
X175387000Y-97739181D01*
X175387000Y-98933000D01*
X175407000Y-98933000D01*
X175407000Y-99187000D01*
X175387000Y-99187000D01*
X175387000Y-101473000D01*
X175407000Y-101473000D01*
X175407000Y-101727000D01*
X175387000Y-101727000D01*
X175387000Y-104013000D01*
X175407000Y-104013000D01*
X175407000Y-104267000D01*
X175387000Y-104267000D01*
X175387000Y-106553000D01*
X175407000Y-106553000D01*
X175407000Y-106807000D01*
X175387000Y-106807000D01*
X175387000Y-106827000D01*
X175133000Y-106827000D01*
X175133000Y-106807000D01*
X173933750Y-106807000D01*
X173775000Y-106965750D01*
X173775000Y-107656310D01*
X173871673Y-107889699D01*
X174050302Y-108068327D01*
X174283691Y-108165000D01*
X174974250Y-108165000D01*
X175132998Y-108006252D01*
X175132998Y-108108184D01*
X174775302Y-108347189D01*
X174520000Y-108729275D01*
X174264698Y-108347189D01*
X173799151Y-108036120D01*
X173250000Y-107926887D01*
X172926114Y-107991312D01*
X170638492Y-105703690D01*
X173775000Y-105703690D01*
X173775000Y-106394250D01*
X173933750Y-106553000D01*
X175133000Y-106553000D01*
X175133000Y-104267000D01*
X173939845Y-104267000D01*
X173818524Y-104496890D01*
X173988355Y-104906924D01*
X174259878Y-105204864D01*
X174050302Y-105291673D01*
X173871673Y-105470301D01*
X173775000Y-105703690D01*
X170638492Y-105703690D01*
X169056219Y-104121417D01*
X168809657Y-103956670D01*
X168805951Y-103955933D01*
X168797481Y-103938299D01*
X168745908Y-103892755D01*
X168799556Y-103889238D01*
X169319217Y-103632962D01*
X169701250Y-103197328D01*
X169887493Y-102648657D01*
X169849592Y-102070480D01*
X169793574Y-101956890D01*
X173818524Y-101956890D01*
X173988355Y-102366924D01*
X174378642Y-102795183D01*
X174537954Y-102870000D01*
X174378642Y-102944817D01*
X173988355Y-103373076D01*
X173818524Y-103783110D01*
X173939845Y-104013000D01*
X175133000Y-104013000D01*
X175133000Y-101727000D01*
X173939845Y-101727000D01*
X173818524Y-101956890D01*
X169793574Y-101956890D01*
X169674496Y-101715431D01*
X170069556Y-101689534D01*
X170589217Y-101433258D01*
X170971250Y-100997624D01*
X171157493Y-100448953D01*
X171119592Y-99870776D01*
X170944496Y-99515726D01*
X171339556Y-99489829D01*
X171487457Y-99416890D01*
X173818524Y-99416890D01*
X173988355Y-99826924D01*
X174378642Y-100255183D01*
X174537954Y-100330000D01*
X174378642Y-100404817D01*
X173988355Y-100833076D01*
X173818524Y-101243110D01*
X173939845Y-101473000D01*
X175133000Y-101473000D01*
X175133000Y-99187000D01*
X173939845Y-99187000D01*
X173818524Y-99416890D01*
X171487457Y-99416890D01*
X171859217Y-99233553D01*
X172241250Y-98797919D01*
X172273432Y-98703110D01*
X173818524Y-98703110D01*
X173939845Y-98933000D01*
X175133000Y-98933000D01*
X175133000Y-97739181D01*
X174903108Y-97618514D01*
X174378642Y-97864817D01*
X173988355Y-98293076D01*
X173818524Y-98703110D01*
X172273432Y-98703110D01*
X172427493Y-98249248D01*
X172389592Y-97671071D01*
X172214496Y-97316022D01*
X172609556Y-97290125D01*
X173129217Y-97033849D01*
X173511250Y-96598215D01*
X173697493Y-96049544D01*
X173659592Y-95471367D01*
X173484496Y-95116317D01*
X173879556Y-95090420D01*
X174399217Y-94834144D01*
X174781250Y-94398510D01*
X174967493Y-93849839D01*
X174929592Y-93271662D01*
X174673316Y-92752000D01*
X174237682Y-92369968D01*
X174187292Y-92340876D01*
X173638621Y-92154633D01*
X173060444Y-92192534D01*
X172704413Y-92368114D01*
X176334942Y-86079853D01*
X177523114Y-84075708D01*
X177563644Y-84074980D01*
X177338039Y-84412622D01*
X177338039Y-84412622D01*
G37*
X177338039Y-84412622D02*
X177225000Y-84980907D01*
X177225000Y-85039093D01*
X177338039Y-85607378D01*
X177659946Y-86089147D01*
X177957020Y-86287645D01*
X177997852Y-86492920D01*
X178162599Y-86739482D01*
X178215001Y-86791884D01*
X178215001Y-87402560D01*
X176950000Y-87402560D01*
X176714683Y-87446838D01*
X176498559Y-87585910D01*
X176353569Y-87798110D01*
X176302560Y-88050000D01*
X176302560Y-89750000D01*
X176346838Y-89985317D01*
X176485910Y-90201441D01*
X176698110Y-90346431D01*
X176765541Y-90360086D01*
X176720853Y-90389946D01*
X176398946Y-90871715D01*
X176285907Y-91440000D01*
X176398946Y-92008285D01*
X176720853Y-92490054D01*
X177040000Y-92703301D01*
X177040000Y-92716699D01*
X176720853Y-92929946D01*
X176398946Y-93411715D01*
X176285907Y-93980000D01*
X176398946Y-94548285D01*
X176720853Y-95030054D01*
X177040000Y-95243301D01*
X177040000Y-95256699D01*
X176720853Y-95469946D01*
X176398946Y-95951715D01*
X176285907Y-96520000D01*
X176398946Y-97088285D01*
X176720853Y-97570054D01*
X176751466Y-97590509D01*
X176664683Y-97606838D01*
X176448559Y-97745910D01*
X176303569Y-97958110D01*
X176289535Y-98027411D01*
X176141358Y-97864817D01*
X175616892Y-97618514D01*
X175387000Y-97739181D01*
X175387000Y-98933000D01*
X175407000Y-98933000D01*
X175407000Y-99187000D01*
X175387000Y-99187000D01*
X175387000Y-101473000D01*
X175407000Y-101473000D01*
X175407000Y-101727000D01*
X175387000Y-101727000D01*
X175387000Y-104013000D01*
X175407000Y-104013000D01*
X175407000Y-104267000D01*
X175387000Y-104267000D01*
X175387000Y-106553000D01*
X175407000Y-106553000D01*
X175407000Y-106807000D01*
X175387000Y-106807000D01*
X175387000Y-106827000D01*
X175133000Y-106827000D01*
X175133000Y-106807000D01*
X173933750Y-106807000D01*
X173775000Y-106965750D01*
X173775000Y-107656310D01*
X173871673Y-107889699D01*
X174050302Y-108068327D01*
X174283691Y-108165000D01*
X174974250Y-108165000D01*
X175132998Y-108006252D01*
X175132998Y-108108184D01*
X174775302Y-108347189D01*
X174520000Y-108729275D01*
X174264698Y-108347189D01*
X173799151Y-108036120D01*
X173250000Y-107926887D01*
X172926114Y-107991312D01*
X170638492Y-105703690D01*
X173775000Y-105703690D01*
X173775000Y-106394250D01*
X173933750Y-106553000D01*
X175133000Y-106553000D01*
X175133000Y-104267000D01*
X173939845Y-104267000D01*
X173818524Y-104496890D01*
X173988355Y-104906924D01*
X174259878Y-105204864D01*
X174050302Y-105291673D01*
X173871673Y-105470301D01*
X173775000Y-105703690D01*
X170638492Y-105703690D01*
X169056219Y-104121417D01*
X168809657Y-103956670D01*
X168805951Y-103955933D01*
X168797481Y-103938299D01*
X168745908Y-103892755D01*
X168799556Y-103889238D01*
X169319217Y-103632962D01*
X169701250Y-103197328D01*
X169887493Y-102648657D01*
X169849592Y-102070480D01*
X169793574Y-101956890D01*
X173818524Y-101956890D01*
X173988355Y-102366924D01*
X174378642Y-102795183D01*
X174537954Y-102870000D01*
X174378642Y-102944817D01*
X173988355Y-103373076D01*
X173818524Y-103783110D01*
X173939845Y-104013000D01*
X175133000Y-104013000D01*
X175133000Y-101727000D01*
X173939845Y-101727000D01*
X173818524Y-101956890D01*
X169793574Y-101956890D01*
X169674496Y-101715431D01*
X170069556Y-101689534D01*
X170589217Y-101433258D01*
X170971250Y-100997624D01*
X171157493Y-100448953D01*
X171119592Y-99870776D01*
X170944496Y-99515726D01*
X171339556Y-99489829D01*
X171487457Y-99416890D01*
X173818524Y-99416890D01*
X173988355Y-99826924D01*
X174378642Y-100255183D01*
X174537954Y-100330000D01*
X174378642Y-100404817D01*
X173988355Y-100833076D01*
X173818524Y-101243110D01*
X173939845Y-101473000D01*
X175133000Y-101473000D01*
X175133000Y-99187000D01*
X173939845Y-99187000D01*
X173818524Y-99416890D01*
X171487457Y-99416890D01*
X171859217Y-99233553D01*
X172241250Y-98797919D01*
X172273432Y-98703110D01*
X173818524Y-98703110D01*
X173939845Y-98933000D01*
X175133000Y-98933000D01*
X175133000Y-97739181D01*
X174903108Y-97618514D01*
X174378642Y-97864817D01*
X173988355Y-98293076D01*
X173818524Y-98703110D01*
X172273432Y-98703110D01*
X172427493Y-98249248D01*
X172389592Y-97671071D01*
X172214496Y-97316022D01*
X172609556Y-97290125D01*
X173129217Y-97033849D01*
X173511250Y-96598215D01*
X173697493Y-96049544D01*
X173659592Y-95471367D01*
X173484496Y-95116317D01*
X173879556Y-95090420D01*
X174399217Y-94834144D01*
X174781250Y-94398510D01*
X174967493Y-93849839D01*
X174929592Y-93271662D01*
X174673316Y-92752000D01*
X174237682Y-92369968D01*
X174187292Y-92340876D01*
X173638621Y-92154633D01*
X173060444Y-92192534D01*
X172704413Y-92368114D01*
X176334942Y-86079853D01*
X177523114Y-84075708D01*
X177563644Y-84074980D01*
X177338039Y-84412622D01*
M02*
