M48
INCH,TZ
T1C0.016
T2C0.028
T3C0.031
T4C0.039
%
G90
G05
T1
X7.6Y-4.4
X8.2Y-4.4
X8.3Y-4.2
T2
X6.9661Y-4.7087
X7.2661Y-4.7087
T3
X6.8209Y-4.3067
X6.8209Y-4.6067
X6.9209Y-4.3067
X6.9209Y-4.6067
X7.0209Y-4.3067
X7.0209Y-4.6067
X7.1209Y-4.3067
X7.1209Y-4.6067
X7.2209Y-4.3067
X7.2209Y-4.6067
X7.3209Y-4.3067
X7.3209Y-4.6067
X7.3657Y-4.7787
X7.4209Y-4.3067
X7.4209Y-4.6067
X7.4642Y-4.7787
X7.5209Y-4.3067
X7.5209Y-4.6067
X7.6209Y-4.3067
X7.6209Y-4.6067
X7.6374Y-4.7677
X7.7209Y-4.3067
X7.7209Y-4.6067
X7.787Y-4.7677
X7.8209Y-4.3067
X7.8209Y-4.6067
X7.8453Y-4.9346
X7.9209Y-4.3067
X7.9209Y-4.6067
X7.9437Y-4.9346
X7.976Y-4.8096
X8.0209Y-4.3067
X8.0209Y-4.6067
X8.0252Y-4.7244
X8.1209Y-4.3067
X8.1209Y-4.6067
T4
X6.5795Y-4.1197
X6.6295Y-4.0331
X6.6795Y-3.9465
X6.7295Y-3.8599
X6.7795Y-3.7733
X6.8295Y-3.6867
X6.9Y-3.9
X6.9Y-4.
X6.9Y-4.1
X6.9Y-4.2
X6.998Y-3.9
X6.998Y-4.
X6.998Y-4.1
X6.998Y-4.2
X7.Y-3.5
X7.Y-3.6
X7.Y-3.7
X7.Y-3.8
X7.0358Y-3.3469
X7.0433Y-4.8331
X7.0433Y-4.9331
X7.1Y-3.5
X7.1Y-3.6
X7.1Y-3.7
X7.1Y-3.8
X7.1Y-3.9
X7.1Y-4.
X7.1Y-4.1
X7.1Y-4.2
X7.1358Y-3.3469
X7.1433Y-4.8331
X7.1433Y-4.9331
X7.2Y-3.5
X7.2Y-3.6
X7.2Y-3.7
X7.2Y-3.8
X7.2Y-3.9
X7.2Y-4.
X7.2Y-4.1
X7.2Y-4.2
X7.2358Y-3.3469
X7.2433Y-4.8331
X7.2433Y-4.9331
X7.3Y-3.5
X7.3Y-3.6
X7.3Y-3.7
X7.3Y-3.8
X7.3Y-3.9
X7.3Y-4.
X7.3Y-4.1
X7.3Y-4.2
X7.3358Y-3.3469
X7.4Y-3.5
X7.4Y-3.6
X7.4Y-3.7
X7.4Y-3.8
X7.4Y-3.9
X7.4Y-4.
X7.4Y-4.1
X7.4Y-4.2
X7.422Y-4.9346
X7.4358Y-3.3469
X7.5Y-3.5
X7.5Y-3.6
X7.5Y-3.7
X7.5Y-3.8
X7.5Y-3.9
X7.5Y-4.
X7.5Y-4.1
X7.5Y-4.2
X7.522Y-4.9346
X7.5358Y-3.3469
X7.6Y-3.5
X7.6Y-3.6
X7.6Y-3.7
X7.6Y-3.8
X7.6Y-3.9
X7.6Y-4.
X7.6Y-4.1
X7.6Y-4.2
X7.622Y-4.9346
X7.6358Y-3.3469
X7.7Y-3.5
X7.7Y-3.6
X7.7Y-3.7
X7.7Y-3.8
X7.7Y-3.9
X7.7Y-4.
X7.7Y-4.1
X7.7Y-4.2
X7.722Y-4.9346
X7.7358Y-3.3469
X7.8Y-3.5
X7.8Y-3.6
X7.8Y-3.7
X7.8Y-3.8
X7.8Y-3.9
X7.8Y-4.
X7.8Y-4.1
X7.8Y-4.2
X7.9Y-3.5
X7.9Y-3.6
X7.9Y-3.7
X7.9Y-3.8
X7.9Y-3.9
X7.9Y-4.
X7.9Y-4.1
X7.9Y-4.2
X8.Y-3.9
X8.Y-4.
X8.Y-4.1
X8.Y-4.2
X8.0665Y-3.6083
X8.1Y-3.9
X8.1Y-4.
X8.1Y-4.1
X8.1Y-4.2
X8.1165Y-3.6949
X8.1665Y-3.7815
X8.2165Y-3.8681
X8.2665Y-3.9547
X8.3165Y-4.0413
X8.3665Y-4.1279
T0
M30
